<?xml version="1.0" encoding="utf-8"?>
<!-- Generator: Adobe Illustrator 15.1.0, SVG Export Plug-In  -->
<!DOCTYPE svg PUBLIC "-//W3C//DTD SVG 1.1//EN" "http://www.w3.org/Graphics/SVG/1.1/DTD/svg11.dtd" [
	<!ENTITY ns_flows "http://ns.adobe.com/Flows/1.0/">
]>
<svg version="1.1"
	 xmlns="http://www.w3.org/2000/svg" xmlns:xlink="http://www.w3.org/1999/xlink" xmlns:a="http://ns.adobe.com/AdobeSVGViewerExtensions/3.0/"
	 x="0px" y="0px" width="60px" height="60px" viewBox="-1.985 -6.023 60 60"
	 overflow="visible" enable-background="new -1.985 -6.023 60 60" xml:space="preserve">
<defs>
</defs>
<path fill="#CBB779" stroke="#9B754C" stroke-miterlimit="10" d="M5.581,31.783c0,0,1.61,11.705,22.238,13.761
	c20.628,2.058,22.219-14.92,19.52-16.924C44.641,26.615-3.91,17.072,5.581,31.783z"/>
<g>
	<ellipse fill="#E2CA7F" cx="21.683" cy="29.296" rx="16.59" ry="12.655"/>
	<path fill="#9B754C" d="M38.322,29.296c0.011,1.937-0.571,3.854-1.558,5.527c-0.985,1.681-2.383,3.11-3.975,4.251
		c-3.204,2.295-7.197,3.343-11.111,3.291c-3.912-0.065-7.799-1.24-11.025-3.407c-1.593-1.105-3.036-2.464-4.092-4.11
		c-1.042-1.645-1.716-3.565-1.744-5.551c-0.047-1.979,0.511-3.977,1.556-5.669c1.034-1.703,2.477-3.131,4.113-4.24
		c3.281-2.23,7.265-3.293,11.194-3.262c3.924-0.003,7.915,1.078,11.116,3.379c1.589,1.146,2.987,2.577,3.973,4.259
		C37.764,25.435,38.358,27.357,38.322,29.296z M38.223,29.296c-0.025-1.914-0.624-3.807-1.687-5.384
		c-1.064-1.579-2.501-2.872-4.104-3.86c-3.22-1.975-7.001-2.891-10.75-2.895c-3.744,0.032-7.531,0.967-10.671,3.013
		c-1.556,1.026-2.948,2.321-3.964,3.88c-1.009,1.555-1.644,3.37-1.68,5.247c-0.038,1.868,0.482,3.76,1.494,5.363
		c0.995,1.615,2.388,2.98,3.986,4.01c3.196,2.108,7.079,2.932,10.84,2.867c3.759-0.053,7.537-1.003,10.754-2.984
		c1.601-0.994,3.038-2.288,4.102-3.868C37.611,33.11,38.223,31.214,38.223,29.296z"/>
</g>
<path fill="#139320" d="M6.491,16.656c0,0,22.302-38.912,45.239,2.215c0,0,1.618,13.452-21.039,4.423
	C8.036,14.269,6.491,16.656,6.491,16.656z"/>
<path fill="#A8A39D" d="M5.53,16.801c0,0-12.338,7.593,0,14.236c0,0-2.373-8.066,6.168-5.062s37.489,16.293,43.341,3.321
	c0,0,2.372-9.648-3.797-9.648c0,0,2.848,14.077-26.1,1.898C25.144,21.546,9.959,15.219,5.53,16.801z"/>
<g>
	<ellipse fill="#665938" cx="11.309" cy="30.708" rx="4.818" ry="4.441"/>
	<path fill="#AD955E" d="M16.177,30.708c-0.005,1.214-0.424,2.484-1.324,3.437c-0.88,0.973-2.229,1.489-3.554,1.42
		C10,35.493,8.767,34.889,7.865,34.031c-0.912-0.854-1.565-2.014-1.647-3.332c-0.111-1.284,0.456-2.655,1.444-3.548
		c0.979-0.915,2.298-1.438,3.661-1.42c1.305,0.015,2.673,0.541,3.542,1.526C15.759,28.22,16.184,29.49,16.177,30.708z
		 M16.078,30.707c0.013-1.22-0.719-2.325-1.65-2.956c-0.947-0.631-2.011-0.972-3.13-0.953c-1.062,0.012-2.174,0.355-3.013,1.058
		c-0.837,0.7-1.428,1.704-1.521,2.858c-0.103,1.12,0.401,2.334,1.315,3.074c0.914,0.759,2.113,1.021,3.239,0.945
		c1.098-0.064,2.182-0.413,3.119-1.058C15.363,33.036,16.102,31.932,16.078,30.707z"/>
</g>
<path fill="#1AD731" d="M6.15,16.381c0,0,12.97-21.1,28.946-15.406c0,0,3.751,23.094-14.101,18.032"/>
<g>
	<path d="M20.562,3.039c1.392,0.835,2.893,1.48,4.431,1.976c1.535,0.507,3.114,0.871,4.711,1.076c3.193,0.413,6.45,0.264,9.577-0.48
		l0.542-0.129v0.577c0.001,1.697,0.185,3.458,0.488,5.165c0.302,1.715,0.693,3.419,1.231,5.083c1.048,3.335,2.652,6.509,4.761,9.316
		l-0.243,0.184c-0.521-0.669-1.061-1.33-1.617-1.97c-0.56-0.635-1.131-1.274-1.77-1.8c-0.159-0.125-0.331-0.25-0.49-0.312
		c-0.078-0.034-0.145-0.026-0.129-0.025c0.021-0.023-0.032,0.031-0.059,0.067l-0.075,0.109c-0.208,0.334-0.371,0.729-0.524,1.117
		c-0.303,0.784-0.563,1.596-0.796,2.405l-0.067,0.233l-0.248-0.034c-2.58-0.356-5.132-0.843-7.656-1.508
		c-1.262-0.33-2.515-0.713-3.744-1.191c-1.222-0.491-2.449-1.025-3.535-1.933c-0.519-0.456-1.069-1.064-1.18-1.929
		c-0.052-0.729-0.045-1.335-0.048-2.003c0.013-1.305,0.073-2.603,0.139-3.899c0.145-2.592,0.311-5.177,0.56-7.761l0.961,0.041
		c-0.055,1.627-0.265,3.202-0.618,4.772c-0.359,1.56-0.877,3.109-1.733,4.498c-0.839,1.374-2.109,2.612-3.715,3.045
		c-1.597,0.446-3.251,0.122-4.712-0.441l0.033-0.095c1.486,0.463,3.114,0.648,4.553,0.133c1.448-0.485,2.55-1.646,3.278-2.973
		c0.729-1.339,1.182-2.829,1.489-4.34c0.296-1.511,0.457-3.078,0.463-4.599l0.961,0.041c-0.173,2.575-0.365,5.154-0.48,7.731
		c-0.061,1.288-0.104,2.577-0.12,3.86c-0.01,0.625-0.02,1.315,0.01,1.877c0.036,0.445,0.38,0.909,0.815,1.295
		c0.892,0.777,2.061,1.331,3.225,1.814c1.177,0.476,2.396,0.876,3.625,1.241c2.465,0.711,4.986,1.293,7.515,1.763l-0.315,0.198
		c0.274-0.818,0.562-1.624,0.905-2.419c0.176-0.397,0.351-0.791,0.607-1.174c0.031-0.046,0.069-0.097,0.113-0.149
		c0.043-0.043,0.053-0.078,0.171-0.151c0.208-0.1,0.371-0.028,0.485,0.015c0.234,0.106,0.403,0.248,0.574,0.39
		c0.669,0.572,1.23,1.219,1.789,1.871c0.554,0.655,1.085,1.323,1.602,2.008l-0.243,0.184c-2.143-2.82-3.852-5.968-5.103-9.297
		c-0.612-1.669-1.123-3.382-1.466-5.133c-0.326-1.758-0.569-3.515-0.557-5.344l0.542,0.448c-3.236,0.692-6.61,0.849-9.873,0.279
		c-1.628-0.284-3.229-0.716-4.765-1.312c-1.524-0.618-3.014-1.342-4.335-2.325L20.562,3.039z"/>
</g>
<path fill="#E5E2DF" stroke="#C6C1BD" stroke-miterlimit="10" d="M2.208,27.398c0,0-5.536-3.638,3.322-10.597
	c0,0,3.637-3.163,29.895,10.597c0,0,11.231,1.898,14.236,0c0,0,2.791-1.138,3.797-3.671c0,0,2.371,5.542-8.859,6.032
	c0,0-5.061,1.905-34.482-8.687C10.117,21.072,1.417,19.963,2.208,27.398z"/>
</svg>
