<?xml version="1.0" encoding="utf-8"?>
<!-- Generator: Adobe Illustrator 15.1.0, SVG Export Plug-In . SVG Version: 6.00 Build 0)  -->
<!DOCTYPE svg PUBLIC "-//W3C//DTD SVG 1.1//EN" "http://www.w3.org/Graphics/SVG/1.1/DTD/svg11.dtd">
<svg version="1.1" id="Layer_1" xmlns="http://www.w3.org/2000/svg" xmlns:xlink="http://www.w3.org/1999/xlink" x="0px" y="0px"
	 width="360px" height="126px" viewBox="0 0 360 126" enable-background="new 0 0 360 126" xml:space="preserve">
<g>
	<g>
		<path fill="#FFFFFF" d="M61.202,17.388c0,0.794-0.255,1.445-0.765,1.955c-0.85,0.964-1.304,1.474-1.36,1.53
			c-0.34,0.567-0.68,2.04-1.02,4.42c-1.417,11.56-2.125,22.979-2.125,34.255c0,6.347,1.133,9.917,3.4,10.71v2.295
			c-0.68,1.416-1.729,2.125-3.145,2.125c-2.89,0-5.072-2.521-6.545-7.563c-1.077-3.57-1.615-7.312-1.615-11.221
			c0-8.556,0.226-15.695,0.68-21.42c-1.696,6.63-3.42,13.29-5.172,19.975c-3.165,10.313-6.217,15.47-9.156,15.47
			c-3.334,0-6.274-3.031-8.816-9.096c-2.375-5.495-5.285-14.732-8.732-27.709c-0.34,3.854-0.509,7.792-0.509,11.815
			c0,8.33,0.219,14.365,0.658,18.105c0.054,0.68,0.369,1.771,0.944,3.271c0.575,1.502,0.863,2.678,0.863,3.527
			c0,1.87-1.56,2.805-4.675,2.805c-3.684,0-5.525-4.957-5.525-14.875c0-4.023,0.226-10.03,0.68-18.02
			c0.453-7.99,0.68-13.968,0.68-17.935c0-0.453-0.227-0.935-0.68-1.445c-0.455-0.51-0.68-0.991-0.68-1.445
			c0-3.173,2.833-4.76,8.5-4.76c1.303,0,2.861,0.822,4.675,2.465c0.17,1.757,0.453,4.42,0.85,7.99
			c0.566,4.987,1.898,11.589,3.995,19.805c2.776,10.597,5.185,15.895,7.225,15.895c0.453,0,1.048-0.877,1.785-2.635
			c1.416-3.4,2.805-8.188,4.165-14.365c1.02-4.93,2.04-9.86,3.06-14.79c0.453-2.323,1.275-5.666,2.465-10.03
			c1.19-3.23,3.683-4.845,7.48-4.845c1.36,0,3.003,0.312,4.93,0.935C60.04,15.377,61.202,16.312,61.202,17.388z"/>
		<g>
			<path fill="#A7A9AC" d="M61.452,17.398c0.002,0.333-0.053,0.761-0.183,1.109c-0.13,0.363-0.341,0.7-0.606,0.977l-1.391,1.583
				l0.041-0.052c-0.412,0.845-0.572,1.948-0.754,2.96c-0.178,1.034-0.284,2.072-0.403,3.128c-0.229,2.098-0.394,4.202-0.553,6.307
				c-0.332,4.208-0.502,8.426-0.57,12.642c-0.078,4.216-0.006,8.432,0.139,12.639c0.063,2.107,0.203,4.132,0.609,6.065
				c0.206,0.95,0.48,1.875,0.862,2.612c0.381,0.759,0.864,1.192,1.254,1.276l1.098,0.237l0.047,1.376l0.077,2.295l0.012,0.364
				l-0.188,0.409c-0.271,0.59-0.625,1.199-1.162,1.75c-0.522,0.552-1.242,1.012-1.999,1.257c-0.377,0.119-0.762,0.198-1.131,0.229
				c-0.197,0.018-0.34,0.025-0.574,0.025l-0.186-0.001l-0.283-0.015c-0.739-0.051-1.42-0.223-2.079-0.502
				c-1.316-0.561-2.317-1.496-3.07-2.444c-0.759-0.96-1.312-1.968-1.776-2.976c-0.465-1.004-0.832-2.028-1.129-3.035
				c-0.14-0.454-0.294-0.984-0.43-1.498c-0.134-0.508-0.26-1.018-0.373-1.529c-0.458-2.047-0.75-4.13-0.889-6.217
				c-0.076-1.03-0.09-2.117-0.079-3.103l0.023-2.988l0.112-5.983c0.132-3.991,0.372-7.985,0.745-11.988l4.031,0.67
				c-1.838,6.57-3.741,13.122-5.671,19.666c-0.565,1.742-1.14,3.303-1.779,4.936c-0.639,1.613-1.328,3.214-2.126,4.783
				c-0.811,1.562-1.696,3.116-2.962,4.52c-0.64,0.689-1.402,1.364-2.451,1.767c-1.126,0.414-2.188,0.217-3.131-0.049
				c-1.929-0.613-3.339-1.99-4.424-3.403c-1.085-1.442-1.926-2.994-2.664-4.573c-1.437-3.155-2.553-6.404-3.645-9.646
				c-1.092-3.244-2.095-6.511-3.057-9.789c-0.989-3.27-1.935-6.55-2.854-9.838l1.828-0.157c-0.322,4.795-0.332,9.575-0.169,14.395
				c0.146,4.808,0.348,9.646,0.903,14.333c0.077,0.564,0.146,1.234,0.259,1.562c0.132,0.479,0.324,1.013,0.53,1.541
				c0.42,1.06,0.968,2.304,1.231,3.769c0.062,0.392,0.118,0.75,0.101,1.276l-0.01,0.246c-0.016,0.151-0.037,0.304-0.062,0.453
				c-0.057,0.301-0.127,0.535-0.233,0.803c-0.418,1.076-1.352,1.847-2.161,2.232c-0.824,0.396-1.591,0.56-2.318,0.668
				c-0.749,0.103-1.371,0.146-2.136,0.123c-2.083-0.094-3.699-1.447-4.547-2.753c-0.893-1.321-1.343-2.657-1.7-3.956
				c-0.674-2.6-0.899-5.123-1.03-7.625c-0.2-5.005,0.013-9.817,0.173-14.683c0.185-4.86,0.452-9.671,0.601-14.474
				c0.078-2.401,0.14-4.8,0.156-7.18v-1.778l-0.002-0.221l-0.001-0.11c-0.001-0.044,0.008,0.284,0.003,0.131l-0.002-0.028
				L7.34,21.863l-0.004-0.057c-0.001-0.019-0.001,0.047,0.001,0.067c0.003,0.061,0.012,0.122,0.027,0.18
				c0.013,0.07,0.021,0.089,0.032,0.121c0.036,0.101,0.025,0.056-0.048-0.024l-0.299-0.353c-0.205-0.258-0.362-0.49-0.511-0.751
				c-0.298-0.55-0.591-1.222-0.586-2.217c0.003-0.148-0.001-0.27,0.027-0.597c0.022-0.293,0.057-0.495,0.104-0.75
				c0.091-0.486,0.25-0.986,0.471-1.464c0.44-0.962,1.159-1.792,1.916-2.365c0.76-0.587,1.547-0.964,2.297-1.242
				c1.509-0.547,2.915-0.736,4.271-0.845c0.678-0.05,1.345-0.072,2.002-0.074c0.363-0.013,1.115,0.07,1.533,0.186
				c0.479,0.115,0.906,0.272,1.298,0.445c1.56,0.708,2.659,1.612,3.684,2.52l0.756,0.669l0.11,1.055l0.581,5.556
				c0.19,1.881,0.363,3.668,0.635,5.463c0.531,3.606,1.259,7.231,2.067,10.845l1.264,5.42c0.428,1.779,0.889,3.566,1.389,5.328
				c0.5,1.759,1.052,3.495,1.662,5.156c0.304,0.829,0.631,1.64,0.992,2.376c0.341,0.719,0.797,1.445,1.073,1.706
				c0.064,0.072,0.087,0.072,0.04,0.064c-0.026-0.007-0.079-0.024-0.148-0.03c-0.036-0.005-0.082-0.013-0.122-0.008l-0.015,0.002
				c0.042-0.001-0.451,0.026-0.23,0.014l0.043-0.004c0.114-0.011-0.139,0.007-0.288,0.059c-0.072,0.021-0.176,0.065-0.211,0.083
				l-0.078,0.038l-0.123,0.078c-0.06,0.044-0.091,0.077-0.1,0.086c-0.03,0.035-0.006,0.016,0.019-0.011
				c0.059-0.066,0.153-0.2,0.243-0.346c0.377-0.62,0.747-1.436,1.11-2.267c0.706-1.63,1.335-3.364,1.913-5.105
				c0.578-1.747,1.107-3.521,1.606-5.309l0.721-2.675l0.676-2.729l2.699-10.916c0.821-3.675,1.944-7.283,2.979-10.881l0.008-0.028
				l0.006-0.015c0.6-1.575,1.687-3.055,3.195-3.902c1.5-0.864,3.21-1.105,4.864-1.092c1.661,0.044,3.271,0.454,4.815,0.954
				c0.775,0.265,1.547,0.581,2.262,1.021c0.355,0.225,0.702,0.482,0.988,0.826c0.289,0.333,0.501,0.786,0.498,1.265v0.009H61.452z
				 M60.952,17.388c-0.001-0.686-0.622-1.244-1.268-1.631c-0.667-0.395-1.402-0.685-2.155-0.929
				c-1.525-0.467-3.085-0.833-4.657-0.849c-1.554-0.004-3.149,0.308-4.425,1.129c-1.292,0.803-2.176,2.112-2.663,3.56l0.013-0.042
				c-0.921,3.63-1.713,7.272-2.318,10.953l-1.854,11.09l-0.462,2.773l-0.525,2.803c-0.365,1.857-0.764,3.712-1.221,5.565
				c-0.459,1.857-0.966,3.697-1.605,5.562c-0.316,0.911-0.639,1.844-1.177,2.859c-0.142,0.261-0.293,0.526-0.517,0.834
				c-0.119,0.157-0.244,0.319-0.445,0.515c-0.092,0.092-0.214,0.198-0.37,0.31c-0.062,0.048-0.171,0.115-0.272,0.17l-0.155,0.081
				c-0.061,0.03-0.194,0.083-0.293,0.113c-0.204,0.07-0.511,0.111-0.457,0.103l-0.043,0.007l-0.274,0.015l-0.059-0.002
				c-0.157-0.006-0.32-0.017-0.471-0.04c-0.3-0.052-0.578-0.134-0.818-0.237c-0.471-0.204-0.846-0.462-1.129-0.704
				c-1.127-0.994-1.633-1.919-2.179-2.838c-0.518-0.918-0.941-1.826-1.337-2.734c-0.783-1.816-1.405-3.64-2.002-5.462
				c-0.59-1.822-1.13-3.646-1.645-5.491c-0.504-1.819-0.951-3.656-1.4-5.495c-0.886-3.682-1.696-7.394-2.319-11.19
				c-0.614-3.869-0.96-7.525-1.345-11.305l0.866,1.723c-0.768-0.702-1.596-1.312-2.246-1.597c-0.16-0.072-0.303-0.123-0.412-0.147
				c-0.167-0.028-0.019-0.025-0.26-0.036c-0.551,0-1.093,0.018-1.619,0.055c-1.048,0.075-2.059,0.241-2.824,0.523
				c-0.382,0.137-0.692,0.304-0.887,0.458c-0.206,0.156-0.288,0.277-0.358,0.411c-0.036,0.069-0.068,0.147-0.09,0.254
				c-0.009,0.041-0.028,0.137-0.027,0.146c-0.006-0.027-0.015,0.154-0.02,0.308c0.003-0.388-0.089-0.469-0.095-0.494
				c0,0.002,0.013,0.02-0.008,0.001l0.28,0.344c0.308,0.387,0.634,0.853,0.886,1.519c0.063,0.174,0.113,0.339,0.165,0.554
				c0.028,0.133,0.051,0.268,0.068,0.403l0.019,0.178l0.003,0.057l0.01,0.273l-0.001,0.116l-0.002,0.232L12.51,24.01
				c-0.065,2.452-0.176,4.883-0.303,7.311c-0.247,4.855-0.612,9.691-0.888,14.486c-0.265,4.788-0.533,9.641-0.478,14.302
				c0.05,2.32,0.213,4.646,0.699,6.743c0.249,1.033,0.586,2.021,1.022,2.729c0.428,0.725,0.93,0.999,1.301,1.072
				c0.96,0.072,2.102-0.037,2.651-0.277c0.275-0.13,0.323-0.191,0.365-0.248c0.01-0.011,0.031-0.068,0.033-0.062
				c0,0.002,0.005,0.006,0.014,0.008c0.008-0.032,0.013-0.139,0.02-0.205c0.017-0.077,0.007-0.322-0.017-0.528
				c-0.112-0.931-0.466-1.95-0.882-3.153c-0.2-0.608-0.391-1.225-0.543-1.918c-0.186-0.848-0.181-1.392-0.241-2.025
				c-0.326-4.94-0.249-9.779-0.192-14.634c0.054-4.845,0.294-9.74,0.831-14.574l0.572-5.146l1.257,4.988
				c0.832,3.3,1.69,6.593,2.59,9.873c0.93,3.271,1.9,6.53,2.955,9.755c1.066,3.221,2.248,6.402,3.662,9.441
				c0.713,1.5,1.536,2.95,2.558,4.191c1.009,1.236,2.241,2.281,3.614,2.653c0.678,0.176,1.41,0.238,1.89,0.016
				c0.547-0.224,1.091-0.727,1.568-1.311c0.96-1.188,1.717-2.661,2.383-4.161c1.311-3.004,2.338-6.309,3.189-9.44l4.58-19.927
				l4.031,0.67c-0.247,3.903-0.337,7.835-0.399,11.772l-0.075,5.911l-0.004,2.959c0,0.997,0.014,1.893,0.054,2.842
				c0.086,1.871,0.311,3.731,0.681,5.562c0.374,1.819,0.893,3.695,1.519,5.303c0.636,1.617,1.578,3.035,2.597,3.516
				c0.246,0.125,0.537,0.211,0.786,0.243c0.031,0.003,0.033,0.009,0.087,0.013l0.186,0.01c0.014,0.002,0.119,0.004,0.169,0.002
				c0.125,0,0.229-0.021,0.327-0.041c0.354-0.069,0.698-0.32,1.044-0.944l-0.176,0.772l0.077-2.295l1.145,1.613
				c-0.793-0.296-1.475-0.821-1.958-1.391c-0.488-0.57-0.821-1.176-1.074-1.766c-0.507-1.185-0.726-2.336-0.882-3.463
				c-0.29-2.238-0.254-4.457-0.153-6.572c0.169-4.245,0.468-8.479,0.809-12.705c0.347-4.226,0.79-8.439,1.252-12.646l0.776-6.301
				c0.129-1.042,0.25-2.106,0.443-3.153c0.213-1.051,0.335-2.086,0.861-3.145l0.008-0.016l0.033-0.037l1.402-1.559
				c0.222-0.227,0.394-0.495,0.503-0.79c0.111-0.31,0.159-0.586,0.164-0.953L60.952,17.388L60.952,17.388z"/>
		</g>
	</g>
	<g>
		<path fill="#FFFFFF" d="M98.517,57.933c0,7.31-0.227,12.467-0.68,15.469c-0.284,1.757-1.474,2.636-3.57,2.636
			c-3.174,0-4.59-1.586-4.25-4.761c-2.834,1.361-5.78,2.041-8.84,2.041c-2.947,0-5.752-0.737-8.415-2.211
			c-3.174-1.756-4.76-3.993-4.76-6.715c0-2.662,1.813-5.156,5.44-7.479c3.286-2.095,6.375-3.145,9.265-3.145h7.225v-2.024
			c0.056-5.903-1.7-8.856-5.27-8.856c-4.477,0-6.715,2.076-6.715,6.227c0,1.402-0.794,2.104-2.38,2.104
			c-0.964,0-1.97-0.438-3.018-1.317c-1.049-0.878-1.572-1.798-1.572-2.763c0-3.173,1.133-5.78,3.4-7.82
			c2.266-2.04,4.986-3.06,8.16-3.06C93.19,36.258,98.517,43.483,98.517,57.933z M89.932,60.993c0-1.133-0.85-1.699-2.55-1.699
			c-7.084,0-10.625,1.672-10.625,5.015c0,1.814,1.558,2.721,4.675,2.721c1.926,0,3.74-0.537,5.44-1.615
			C88.912,64.223,89.932,62.75,89.932,60.993z"/>
		<g>
			<path fill="#A7A9AC" d="M98.767,57.933c-0.001,2.329,0.028,4.659,0.083,6.995c0.054,2.338,0.158,4.676,0.129,7.059
				c-0.015,0.617-0.007,1.156-0.082,1.853c-0.097,0.753-0.386,1.562-0.987,2.229c-0.592,0.668-1.396,1.074-2.134,1.285
				c-0.74,0.225-1.484,0.282-2.146,0.293c-0.711,0-1.46-0.061-2.267-0.33c-0.793-0.258-1.661-0.778-2.258-1.551
				c-0.608-0.764-0.934-1.648-1.085-2.447c-0.149-0.81-0.153-1.557-0.111-2.267l3.025,2.138c-2.153,1.137-4.55,1.928-7.014,2.209
				c-0.614,0.08-1.233,0.121-1.85,0.135c-0.323,0.012-0.585,0.006-0.958,0.006c-0.278-0.007-0.541-0.018-0.893-0.048
				c-1.28-0.103-2.501-0.331-3.709-0.679c-1.201-0.354-2.345-0.857-3.426-1.437c-1.072-0.578-2.091-1.258-3.065-2.11
				c-0.952-0.843-1.83-1.865-2.414-3.089c-0.598-1.218-0.83-2.59-0.745-3.896c0.083-1.325,0.601-2.589,1.276-3.624
				c0.684-1.046,1.551-1.892,2.455-2.636c1.823-1.477,3.775-2.636,5.875-3.611c1.051-0.481,2.161-0.845,3.297-1.147
				c1.123-0.29,2.375-0.421,3.492-0.437c2.225-0.108,4.451-0.225,6.676-0.377l-1.32,1.32l-0.169-2.588
				c-0.069-0.785-0.169-1.605-0.334-2.355c-0.306-1.507-0.946-2.878-1.698-3.398c-0.372-0.266-0.766-0.374-1.292-0.412
				c-0.131-0.008-0.269-0.009-0.412-0.003c-0.087,0.007-0.44,0.016-0.55,0.034c-0.32,0.029-0.693,0.077-1.006,0.146
				c-0.646,0.136-1.194,0.359-1.587,0.627c-0.396,0.271-0.639,0.585-0.835,1.009c-0.192,0.423-0.31,0.985-0.336,1.626
				c-0.007,0.16-0.012,0.323-0.007,0.492v0.368l-0.003,0.182l-0.032,0.363c-0.084,0.836-0.479,1.904-1.328,2.677
				c-0.842,0.755-1.771,1.019-2.481,1.131c-0.188,0.032-0.352,0.043-0.529,0.062c-0.189,0.008-0.271,0.019-0.547,0.019l-0.174-0.002
				l-0.349-0.023c-0.196-0.021-0.377-0.045-0.56-0.082c-1.464-0.293-2.54-0.989-3.412-1.671c-0.865-0.703-1.884-1.66-2.419-3.287
				c-0.123-0.4-0.203-0.831-0.228-1.264c-0.004-0.125-0.011-0.177-0.009-0.364l0.002-0.162l0.005-0.324l0.045-0.831l0.092-0.795
				c0.286-2.124,1.202-4.272,2.579-5.968c0.342-0.425,0.712-0.818,1.095-1.191c0.206-0.188,0.364-0.346,0.612-0.555
				c0.175-0.144,0.301-0.258,0.552-0.45c0.883-0.689,1.747-1.219,2.726-1.67c1.932-0.887,4.052-1.311,6.069-1.277
				c1.941,0.026,3.858,0.313,5.735,0.938c1.875,0.6,3.655,1.613,5.122,2.928c1.472,1.318,2.582,2.938,3.38,4.613
				c0.795,1.686,1.299,3.435,1.651,5.176C98.643,50.987,98.774,54.466,98.767,57.933z M98.267,57.933
				c-0.021-3.429-0.443-6.901-1.618-10.073c-1.122-3.171-3.133-5.971-5.729-7.481c-1.288-0.773-2.706-1.229-4.171-1.498
				c-1.466-0.245-3.021-0.28-4.53-0.183c-2.882,0.188-5.282,1.459-6.992,3.606c-0.792,1-1.255,2.144-1.47,3.437l-0.066,0.49
				l-0.036,0.462c-0.017,0.625-0.018,0.398-0.018,0.453c-0.025,0.042,0.176,0.42,0.634,0.803c0.456,0.407,0.898,0.647,1.134,0.705
				l0.079,0.021c-0.008-0.001-0.018,0-0.026,0.004l0.149,0.008c-0.06,0,0.074,0,0.1,0.003l0.115-0.005
				c0.14-0.007,0.064-0.03-0.126,0.147c-0.203,0.192-0.236,0.417-0.214,0.401c0.025,0.037,0.03-0.667,0.09-1.18
				c0.114-1.075,0.378-2.233,0.973-3.351c0.583-1.116,1.543-2.132,2.627-2.753c1.082-0.639,2.215-0.935,3.268-1.08
				c0.539-0.073,1.027-0.102,1.569-0.109c0.321-0.006,0.4,0.002,0.745,0.01c0.288,0.011,0.582,0.037,0.879,0.081
				c1.186,0.164,2.464,0.734,3.385,1.622c0.924,0.886,1.485,1.944,1.814,2.95c0.336,1.012,0.482,1.994,0.561,2.947
				c0.077,0.96,0.068,1.868,0.025,2.809l-0.168,2.592l-0.091,1.404l-1.229-0.084c-2.225-0.152-4.451-0.269-6.676-0.377
				c-2.13-0.151-4.192,0.258-6.171,1.118c-1.961,0.832-3.866,1.994-5.423,3.414c-1.527,1.429-2.686,3.26-2.515,5.086
				c0.194,3.789,4.673,5.661,8.379,6.466c0.95,0.198,1.94,0.304,2.882,0.306l0.775-0.002l0.711-0.027
				c0.495-0.025,0.986-0.08,1.476-0.137c1.956-0.256,3.873-0.776,5.73-1.566l3.692-1.57l-0.667,3.708
				c-0.164,0.907-0.095,1.664,0.071,1.993c0.086,0.175,0.206,0.355,0.493,0.523c0.275,0.168,0.69,0.295,1.138,0.373
				c0.97,0.156,1.815,0.139,2.268-0.176c0.239-0.146,0.46-0.442,0.596-0.824c0.145-0.446,0.269-1.067,0.385-1.607
				c0.445-2.249,0.745-4.566,0.936-6.882C98.195,62.585,98.267,60.259,98.267,57.933z"/>
			<path fill="#A7A9AC" d="M89.683,61.005c0.001-0.357-0.105-0.613-0.333-0.787c-0.217-0.163-0.514-0.201-0.812-0.155
				c-0.623,0.092-1.17,0.508-1.908,0.833c-1.33,0.694-2.6,0.934-3.883,0.824c-1.258-0.103-2.734-0.537-3.846,0.056
				c-0.544,0.272-0.927,0.759-1.054,1.289c-0.065,0.267-0.062,0.544-0.007,0.815c0.048,0.253,0.177,0.586,0.317,0.71
				c0.302,0.201,0.509,0.051,0.834,0.044c0.322-0.02,0.813,0.015,1.356-0.024c1.185-0.078,2.184-0.334,3.173-0.56
				c0.506-0.106,1.014-0.249,1.564-0.395l0.972-0.226c0.19-0.036,0.28-0.03,0.447-0.037c0.152-0.019,0.32-0.033,0.472-0.061
				c0.634-0.085,1.315-0.231,1.841-0.633c0.533-0.389,0.85-1.036,0.865-1.707L89.683,61.005z M90.182,60.993
				c0.005,0.742-0.014,1.518-0.186,2.359c-0.16,0.841-0.459,1.751-0.922,2.557c-0.116,0.204-0.243,0.388-0.371,0.585
				c-0.127,0.189-0.326,0.4-0.438,0.548c-0.057,0.077-0.119,0.146-0.179,0.216l-0.046,0.053c0.045-0.021-0.02,0.027-0.024,0.039
				l-0.113,0.119c-0.157,0.148-0.319,0.299-0.489,0.436c-0.693,0.533-1.492,0.953-2.341,1.257c-0.853,0.29-1.759,0.45-2.657,0.446
				c-0.963,0.006-1.685-0.121-2.576-0.299c-0.857-0.197-1.785-0.433-2.722-1.113c-0.459-0.336-0.911-0.787-1.227-1.366
				c-0.326-0.587-0.447-1.188-0.44-1.818c0.185-1.996,1.268-3.494,2.507-4.544c1.218-1.045,2.55-2.25,4.061-2.853
				c1.507-0.597,3.072-0.549,4.571,0.093c0.672,0.312,1.564,0.646,2.31,1.145c0.373,0.254,0.739,0.548,0.971,0.938
				c0.236,0.371,0.304,0.846,0.311,1.19V60.993z"/>
		</g>
	</g>
	<g>
		<path fill="#FFFFFF" d="M127.5,43.143c0,0.397-0.057,1.02-0.17,1.87c-1.19,1.7-2.437,2.55-3.74,2.55
			c-1.077,0-2.04-0.623-2.89-1.87c-0.114-2.55-1.02-3.825-2.72-3.825c-1.02,0-2.267,2.692-3.74,8.075
			c-0.68,2.38-1.02,5.695-1.02,9.945c0,4.024,0.185,6.459,0.555,7.31c0.422,1.077,0.635,1.813,0.635,2.211
			c0,0.964-0.436,1.741-1.305,2.337c-0.87,0.595-1.838,0.893-2.903,0.893c-3.031,0-4.546-1.414-4.546-4.25
			c0-0.281,0.07-0.68,0.212-1.189c0.141-0.51,0.212-0.877,0.212-1.104c0-2.89-0.142-7.183-0.425-12.877
			c-0.284-5.695-0.425-9.958-0.425-12.792c0-2.55,1.53-3.825,4.59-3.825c1.813,0,3.06,0.54,3.74,1.615
			c1.585-1.756,3.371-2.635,5.355-2.635c1.36,0,2.663,0.37,3.91,1.105c0.85,0.455,1.841,1.432,2.975,2.933
			C126.933,41.118,127.5,42.293,127.5,43.143z"/>
		<g>
			<path fill="#A7A9AC" d="M127.75,43.145c-0.003,0.649-0.089,1.276-0.152,1.904l-0.006,0.057l-0.041,0.062
				c-0.387,0.592-0.83,1.154-1.351,1.672c-0.531,0.5-1.169,0.965-1.96,1.174c-0.77,0.23-1.702,0.149-2.469-0.23
				c-0.772-0.373-1.388-0.933-1.908-1.521l-0.091-0.103l-0.083-0.422c-0.159-0.799-0.431-1.59-0.8-1.973
				c-0.18-0.193-0.343-0.231-0.461-0.232c-0.061-0.004-0.127,0.004-0.209,0.014c-0.048,0.013-0.08,0.007-0.138,0.025l-0.077,0.017
				l-0.019,0.003c-0.032,0.001,0.256-0.01,0.124-0.003l-0.021,0.004l-0.042,0.008l-0.021,0.004h0.056
				c0.082-0.003,0.174-0.021,0.243-0.042c0.033-0.005,0.066-0.014,0.097-0.025l0.122-0.042c0.056-0.024,0.059-0.011,0.058,0.01
				c-0.011,0.046-0.065,0.164-0.125,0.296c-0.125,0.269-0.26,0.621-0.382,0.989c-0.259,0.738-0.493,1.552-0.73,2.369l-0.708,2.496
				l-0.359,1.267c-0.103,0.364-0.195,0.735-0.286,1.143c-0.353,1.593-0.666,3.293-0.904,5.021c-0.263,1.723-0.457,3.51-0.613,5.279
				c-0.061,0.885-0.109,1.769-0.115,2.635c0.007,0.431,0.024,0.858,0.066,1.256c0.022,0.198,0.059,0.386,0.095,0.524l0.204,0.639
				c0.142,0.459,0.285,0.896,0.381,1.424c0.107,0.594,0.042,1.174-0.151,1.731c-0.408,1.139-1.388,1.847-2.262,2.278
				c-0.913,0.467-2.032,0.649-2.98,0.636c-0.495-0.007-1.034-0.044-1.54-0.164c-0.517-0.108-1.057-0.277-1.561-0.585
				c-1.036-0.588-1.768-1.725-2.056-2.797c-0.167-0.56-0.23-1.045-0.278-1.637c-0.013-0.703,0.112-1.228,0.181-1.668
				c0.024-0.175,0.05-0.38,0.044-0.496c0-0.033-0.004-0.051-0.008-0.062c-0.006-0.011-0.01,0.041-0.016-0.046l-0.033-0.337
				l-0.14-1.325c-0.104-0.887-0.202-1.774-0.289-2.664c-0.376-3.563-0.652-7.111-0.975-10.715l-0.384-5.415l-0.109-2.727
				l-0.017-1.373l-0.002-0.691v-0.347l0.016-0.444l0.011-0.186l0.034-0.301c0.027-0.195,0.049-0.412,0.093-0.583
				c0.071-0.356,0.181-0.724,0.325-1.095c0.294-0.743,0.788-1.492,1.415-2.064c0.623-0.579,1.346-0.958,2.018-1.202
				c0.671-0.231,1.312-0.352,1.913-0.414c0.597-0.053,1.165-0.065,1.711-0.025c0.576,0.04,1.214,0.119,1.836,0.299
				c0.634,0.188,1.301,0.462,1.929,0.906c0.626,0.44,1.173,1.057,1.542,1.72l-3.442-0.294c1.323-1.25,3.108-2.285,5.054-2.538
				c0.482-0.059,0.963-0.076,1.435-0.048l0.351,0.031l0.087,0.008l0.089,0.005l0.036,0.006l0.144,0.026
				c0.182,0.032,0.38,0.067,0.637,0.125c0.927,0.204,1.731,0.54,2.482,0.982c0.36,0.221,0.74,0.473,1.038,0.701
				c0.382,0.276,0.684,0.573,0.971,0.876c0.558,0.617,1.03,1.253,1.473,1.905c0.445,0.643,0.869,1.305,1.251,1.999
				C127.351,41.541,127.741,42.269,127.75,43.145z M127.25,43.141c-0.033-0.677-0.373-1.375-0.778-1.992
				c-0.402-0.629-0.892-1.208-1.402-1.768c-0.519-0.547-1.064-1.07-1.653-1.479c-0.29-0.202-0.595-0.384-0.881-0.489
				c-0.37-0.155-0.667-0.265-1.01-0.356c-0.658-0.172-1.356-0.236-1.958-0.19l-0.513,0.051l-0.145,0.016l-0.036,0.004
				c0.082,0.003,0.006,0.004,0.017,0.007l-0.057,0.012l-0.225,0.049c-0.296,0.075-0.577,0.177-0.842,0.299
				c-1.062,0.479-1.873,1.338-2.596,2.361l-1.032,1.46l-2.411-1.755c-0.225-0.164-0.407-0.208-0.903-0.278
				c-0.252-0.026-0.513-0.036-0.834-0.019c-0.353,0.02-0.684,0.052-0.979,0.102c-0.289,0.054-0.529,0.133-0.702,0.21
				c-0.166,0.082-0.231,0.164-0.262,0.201c-0.029,0.042-0.037,0.063-0.068,0.157c-0.012,0.051-0.029,0.113-0.039,0.2
				c-0.014,0.046,0,0.056-0.006,0.083l-0.008,0.034l-0.005,0.15l0.104,10.555c0.021,3.575,0.112,7.207-0.055,10.828
				c-0.034,0.906-0.088,1.814-0.164,2.727l-0.113,1.369l-0.031,0.336l-0.025,0.291c-0.014,0.102-0.03,0.194-0.047,0.273
				c-0.071,0.328-0.151,0.561-0.24,0.82c-0.164,0.425-0.288,0.773-0.333,0.973c-0.032,0.305-0.06,0.723-0.021,1.039
				c0.053,0.686,0.291,1.223,0.773,1.622c0.466,0.42,1.252,0.642,2.017,0.715c0.842,0.095,1.558,0.021,2.27-0.298
				c0.72-0.336,1.307-0.787,1.489-1.391c0.093-0.289,0.136-0.637,0.049-0.922c-0.09-0.354-0.238-0.77-0.401-1.153l-0.273-0.622
				c-0.113-0.285-0.181-0.536-0.239-0.779c-0.124-0.486-0.207-0.951-0.282-1.416c-0.163-0.924-0.286-1.836-0.393-2.748
				c-0.235-1.822-0.446-3.631-0.555-5.5c-0.078-1.859-0.095-3.751,0.222-5.69c0.072-0.476,0.18-0.981,0.298-1.488
				c0.1-0.432,0.238-0.894,0.36-1.331c0.247-0.89,0.546-1.771,0.876-2.656c0.337-0.885,0.72-1.763,1.205-2.661
				c0.251-0.448,0.525-0.899,0.89-1.384c0.187-0.244,0.399-0.49,0.703-0.765c0.157-0.138,0.326-0.278,0.571-0.425
				c0.114-0.069,0.261-0.145,0.415-0.206l0.254-0.088c0.123-0.036,0.27-0.066,0.406-0.083l0.097-0.01h0.021l0.042,0.002l0.021,0.001
				c-0.118,0.005,0.184-0.006,0.166-0.003l0.065,0.007l0.26,0.032c0.168,0.017,0.356,0.069,0.53,0.109
				c0.358,0.098,0.723,0.246,1.057,0.458c0.676,0.423,1.152,1.067,1.405,1.66c0.498,1.208,0.454,2.253,0.398,3.236l-0.175-0.525
				c0.259,0.547,0.578,1.052,0.996,1.396c0.408,0.357,0.931,0.525,1.517,0.485c0.576-0.046,1.167-0.311,1.681-0.708
				c0.524-0.39,0.968-0.901,1.377-1.438l-0.046,0.119C127.156,44.363,127.234,43.746,127.25,43.141z"/>
		</g>
	</g>
	<g>
		<path fill="#FFFFFF" d="M141.95,39.658c0,1.02-0.227,2.465-0.68,4.335c-0.454,1.87-0.68,3.315-0.68,4.335v17.51
			c0,1.077,0.34,2.777,1.02,5.1c-0.858,1.306-1.802,1.955-2.833,1.955c-3.605,0-5.58-1.785-5.922-5.354
			c-0.567-6.629-0.85-11.615-0.85-14.959c0-5.61,0.226-10.312,0.68-14.11c0-0.283,0-0.566,0-0.85c0-1.02,0.786-1.53,2.359-1.53
			c1.402,0,2.806,0.284,4.211,0.85C141.051,37.562,141.95,38.468,141.95,39.658z M142.715,27.758c0,1.247-0.425,2.267-1.275,3.06
			c-0.85,0.794-1.899,1.19-3.145,1.19c-1.474,0-2.847-0.51-4.123-1.53c-1.275-1.02-1.912-2.266-1.912-3.74
			c0-1.246,0.438-2.266,1.317-3.06c0.878-0.793,1.968-1.19,3.272-1.19c1.53,0,2.89,0.497,4.08,1.487
			C142.12,24.968,142.715,26.229,142.715,27.758z"/>
		<g>
			<path fill="#A7A9AC" d="M142.2,39.665c-0.064,2.664-0.795,5.349-0.499,7.854c0.031,0.312,0.077,0.585,0.138,0.88l0.186,0.985
				c0.131,0.657,0.229,1.313,0.337,1.97c0.219,1.313,0.36,2.626,0.429,3.939c0.129,2.627,0,5.253-0.369,7.88l-0.283,1.97
				l-0.138,0.935c-0.037,0.229-0.051,0.549-0.055,0.843c0.018,1.216,0.18,2.523,0.47,3.782l0.1,0.433l-0.205,0.266
				c-0.576,0.752-1.248,1.537-2.283,1.988c-0.259,0.103-0.532,0.188-0.815,0.229c-0.293,0.048-0.576,0.033-0.767,0.033
				c-0.488-0.004-0.948-0.032-1.43-0.107c-0.954-0.133-1.943-0.451-2.831-1.048c-0.89-0.597-1.58-1.488-2.05-2.423
				c-0.466-0.924-0.731-1.979-0.899-2.861c-0.178-0.854-0.373-1.72-0.53-2.582c-0.325-1.726-0.564-3.463-0.76-5.211
				c-0.395-3.478-0.697-7.09-0.59-10.605c0.12-3.523,0.373-7.087,1.368-10.579l-0.014,0.234l0.139-0.779
				c0.031-0.275,0.147-1.057,0.492-1.548c0.338-0.547,0.863-0.925,1.315-1.102c0.458-0.186,0.86-0.235,1.221-0.25
				c0.717-0.026,1.332,0.107,1.848,0.225c0.608,0.126,1.125,0.322,1.662,0.508c0.527,0.202,1.034,0.427,1.523,0.671l0.706,0.363
				c0.232,0.119,0.497,0.262,0.729,0.397c0.468,0.296,0.93,0.631,1.29,1.087c0.355,0.454,0.586,1.038,0.564,1.617L142.2,39.665
				L142.2,39.665z M141.7,39.658c0.002-0.958-0.807-1.658-1.716-1.979c-0.236-0.089-0.446-0.158-0.702-0.216l-0.753-0.183
				c-0.493-0.088-0.983-0.158-1.473-0.167c-0.48-0.014-0.992,0.021-1.421,0.093c-0.518,0.069-0.951,0.165-1.257,0.331
				c-0.148,0.077-0.252,0.17-0.252,0.231c-0.005,0.066,0.119,0.051,0.211-0.037c0.095-0.032,0.146-0.281,0.181-0.041l0.139,0.779
				l-0.038-0.213l0.024,0.447c0.184,3.411,0.105,6.796,0.08,10.217l-0.057,2.56l-0.089,2.544c-0.027,1.688-0.051,3.404-0.038,5.124
				c0.008,1.721,0.016,3.448-0.039,5.186l-0.107,2.611c-0.05,0.849-0.052,1.529,0.098,2.234c0.248,1.377,1.271,2.449,2.819,2.786
				c0.742,0.147,1.638,0.276,2.129,0.037c0.576-0.25,1.088-0.846,1.466-1.526l-0.104,0.698c-0.439-1.264-0.96-2.499-1.347-3.88
				c-0.101-0.354-0.192-0.689-0.262-1.115l-0.154-1.035l-0.283-1.971c-0.369-2.627-0.498-5.253-0.369-7.88
				c0.069-1.313,0.21-2.626,0.429-3.939c0.109-0.657,0.206-1.313,0.337-1.97l0.186-0.985c0.063-0.362,0.143-0.744,0.238-1.086
				c0.391-1.375,0.919-2.63,1.355-3.867c0.425-1.232,0.749-2.507,0.767-3.794v0.005H141.7z"/>
			<path fill="#A7A9AC" d="M142.965,27.77c-0.017,0.638,0.001,1.386-0.099,2.171c-0.046,0.402-0.137,0.824-0.275,1.255
				c-0.094,0.224-0.122,0.382-0.3,0.666c-0.09,0.18-0.097,0.319-0.255,0.532c-0.33,0.44-0.65,0.792-1.057,1.077
				c-0.401,0.291-0.855,0.503-1.322,0.631c-0.233,0.064-0.466,0.099-0.702,0.131c-0.248,0.017-0.421,0.027-0.73,0.014l-0.245-0.025
				c-0.119-0.01-0.248-0.038-0.371-0.057c-0.231-0.042-0.439-0.104-0.652-0.18c-0.852-0.293-1.576-0.865-2.152-1.453
				c-0.578-0.606-1.033-1.201-1.515-1.75c-0.986-1.115-1.932-2.358-2.396-4.105c-0.226-0.771-0.302-1.812,0.018-2.788
				c0.155-0.488,0.394-0.958,0.694-1.367l0.231-0.3l0.122-0.141l0.062-0.07l0.015-0.017l0.008-0.009l0.087-0.077l0.021-0.023
				l0.167-0.184c0.058-0.062,0.093-0.111,0.228-0.22c1.683-1.479,3.791-1.893,5.558-1.577c0.916,0.164,1.825,0.517,2.584,1.043
				c0.766,0.528,1.313,1.286,1.667,2.077c0.427,0.864,0.561,1.754,0.611,2.556c0.046,0.8,0.007,1.497-0.001,2.18L142.965,27.77
				L142.965,27.77z M142.465,27.758c-0.011-0.627-0.277-1.248-0.741-1.657c-0.454-0.411-1.104-0.606-1.629-0.643
				c-0.598-0.11-1.135-0.116-1.546-0.166c-0.417-0.052-0.777-0.092-1.162-0.098c-0.813-0.034-1.488-0.056-1.951,0.025
				c-0.005-0.023-0.093,0.036-0.163,0.078l-0.212,0.129l-0.026,0.016c0.034-0.03-0.086,0.073,0.076-0.067l-0.003,0.002l-0.007,0.003
				l-0.027,0.015l-0.056,0.028l-0.108,0.057c-0.136,0.08-0.274,0.152-0.42,0.247c-0.286,0.191-0.625,0.473-0.859,1.009
				c-0.225,0.43-0.346,1.014-0.204,1.527c0.126,0.519,0.476,1.011,0.943,1.319c0.485,0.336,1.117,0.495,1.7,0.497
				c0.587,0.017,1.121-0.131,1.563-0.211c0.11-0.021,0.228-0.046,0.323-0.058c0.041-0.009,0.075-0.025,0.12-0.026l0.246-0.015
				c0.019-0.022,0.173-0.026,0.252-0.025c0.088-0.014,0.184-0.006,0.272-0.003c0.173-0.004,0.358,0.04,0.554,0.06
				c0.203,0.042,0.442,0.042,0.645,0.102c0.112,0.027,0.34-0.065,0.504-0.092c0.055,0.054,0.257-0.022,0.382-0.042
				c0.274-0.076,0.572-0.19,0.799-0.384c0.479-0.394,0.753-0.966,0.735-1.638V27.758z"/>
		</g>
	</g>
	<g>
		<path fill="#FFFFFF" d="M174.589,55.638c0,5.101-1.275,9.463-3.825,13.09c-2.947,4.136-6.857,6.205-11.73,6.205
			c-4.987,0-8.755-1.701-11.305-5.101c-2.324-3.003-3.485-7.083-3.485-12.24c0-5.1,1.275-9.916,3.825-14.45
			c2.946-5.383,6.771-8.075,11.475-8.075c1.473,0,3.315,0.652,5.525,1.955C171.415,40.82,174.589,47.025,174.589,55.638z
			 M167.109,55.468c0-8.67-2.097-13.005-6.29-13.005c-3.004,0-5.27,1.842-6.8,5.525c-1.134,2.777-1.7,5.922-1.7,9.435
			c0,7.537,2.238,11.306,6.715,11.306c2.89,0,5.042-1.559,6.46-4.676C166.57,61.673,167.109,58.813,167.109,55.468z"/>
		<g>
			<path fill="#A7A9AC" d="M174.839,55.64c-0.018,2.328-0.144,4.682-0.538,7.049c-0.397,2.372-1.059,4.756-2.286,7.027
				c-1.179,2.187-2.984,4.312-5.377,5.636c-2.39,1.352-5.15,1.861-7.792,1.664c-2.471-0.181-5.114-0.896-7.308-2.276
				c-2.232-1.343-3.928-3.356-5.152-5.415c-1.283-2.116-2.053-4.424-2.584-6.771c-0.487-2.354-0.788-4.747-0.844-7.179
				c-0.044-2.433,0.158-4.926,0.78-7.336c0.594-2.41,1.592-4.747,2.757-6.899c1.218-2.239,2.804-4.417,5.066-6.126
				c1.118-0.857,2.418-1.543,3.802-1.994c0.689-0.232,1.404-0.38,2.117-0.485c0.74-0.098,1.369-0.155,2.193-0.132
				c1.682,0.068,3.11,0.584,4.315,1.163c0.611,0.292,1.186,0.609,1.737,0.94l0.409,0.252l0.248,0.158l0.179,0.125l0.765,0.547
				c2.108,1.562,3.815,3.616,4.991,5.893c1.183,2.28,1.791,4.725,2.123,7.097C174.771,50.958,174.845,53.305,174.839,55.64z
				 M174.339,55.636c-0.015-2.3-0.391-4.608-1.208-6.725c-0.811-2.12-2.066-4.006-3.544-5.533c-1.472-1.535-3.178-2.743-4.932-3.748
				c-1.767-1.017-3.846-1.939-5.126-1.892c-0.335,0.016-0.867,0.037-1.275,0.106c-0.435,0.062-0.855,0.17-1.271,0.29
				c-0.83,0.249-1.618,0.637-2.386,1.129c-1.525,0.998-2.884,2.54-4.031,4.275c-1.196,1.84-2.179,3.729-3.011,5.736
				c-0.813,2.002-1.504,4.097-1.867,6.293c-0.362,2.194-0.515,4.473-0.213,6.692c0.274,2.209,0.992,4.398,2.257,6.175
				c1.275,1.842,3.035,3.174,5.015,3.824c1.987,0.663,4.036,0.748,6.192,0.587c4.05-0.257,7.465-1.854,10.507-5.01
				c1.461-1.513,2.786-3.396,3.639-5.489C173.946,60.244,174.352,57.944,174.339,55.636z"/>
			<path fill="#A7A9AC" d="M166.859,55.469c0.01-1.398-0.174-2.786-0.578-4.125c-0.4-1.333-1.011-2.609-1.692-3.688
				c-0.669-1.086-1.427-1.941-2.053-2.376c-0.622-0.425-1.175-0.634-2.239-0.702c-0.948-0.053-1.952,0.067-2.963,0.7
				c-1.001,0.613-1.897,1.647-2.491,2.835c-0.601,1.204-0.972,2.512-1.152,3.855c-0.179,1.342-0.128,2.711,0.03,4.053
				c0.083,0.693,0.186,1.3,0.31,2.017l0.399,1.936c0.298,1.263,0.586,2.481,1.044,3.5c0.452,1.025,1.065,1.755,1.646,2.095
				c0.601,0.338,1.191,0.506,2.326,0.476c0.11-0.007,0.163-0.013,0.25-0.012l0.309-0.036c0.2-0.041,0.398-0.075,0.591-0.13
				c0.382-0.113,0.746-0.293,1.128-0.537c0.757-0.496,1.614-1.257,2.409-2.311c0.778-0.983,1.516-2.191,1.991-3.48
				C166.604,58.243,166.844,56.856,166.859,55.469z M167.359,55.467l0.094,4.289c0.024,1.471,0.036,2.984-0.271,4.581
				c-0.278,1.519-0.901,3.218-2.228,4.601c-0.656,0.689-1.486,1.278-2.397,1.697c-0.456,0.211-0.927,0.379-1.408,0.5l-0.723,0.149
				l-0.794,0.096l-0.262,0.019l-0.363,0.011c-0.238-0.007-0.469-0.002-0.712-0.024c-0.478-0.029-0.979-0.102-1.471-0.226
				c-0.99-0.254-1.99-0.714-2.816-1.378c-1.689-1.336-2.53-3.146-2.993-4.745c-0.94-3.241-0.598-6.281-0.027-9.143
				c0.609-2.908,1.407-5.664,2.375-8.417c0.514-1.37,1.039-2.812,2.039-4.166c0.962-1.349,2.601-2.553,4.447-2.878
				c0.205-0.043,0.503-0.081,0.706-0.105c0.113-0.011,0.118-0.019,0.318-0.025l0.361-0.008c0.486-0.003,0.987,0.049,1.491,0.174
				c1.005,0.23,1.989,0.771,2.72,1.467c1.495,1.422,2.001,3.191,2.183,4.748c0.171,1.588,0.023,3.086-0.086,4.533
				C167.429,52.657,167.34,54.068,167.359,55.467z"/>
		</g>
	</g>
	<g>
		<path fill="#FFFFFF" d="M232.303,64.038c0,3.463-2.013,6.129-6.035,8.002c-3.174,1.532-6.715,2.299-10.625,2.299
			c-3.57,0-7.765-0.795-12.58-2.38c-5.949-2.04-8.926-4.421-8.926-7.141c0-1.021,0.369-1.897,1.105-2.635
			c0.736-0.735,1.615-1.104,2.635-1.104c1.53,0,2.945,0.624,4.25,1.869c2.211,1.87,3.4,2.891,3.57,3.061
			c1.982,1.136,5.553,1.7,10.71,1.7c4.59,0,6.886-1.048,6.886-3.146c0-1.755-2.154-4.191-6.461-7.31
			c-3.004-1.926-6.007-3.853-9.01-5.78c-3.854-2.605-6.659-5.071-8.415-7.395c-2.324-3.06-3.485-6.573-3.485-10.54
			c0-4.985,1.53-9.435,4.59-13.345c3.286-4.306,7.366-6.46,12.24-6.46c4.193,0,7.734,1.147,10.625,3.442s4.73,5.512,5.525,9.647
			c0.17,1.587,0.51,3.938,1.02,7.055c0.227,0.907,0.34,1.587,0.34,2.04c0,2.04-0.34,3.769-1.02,5.185
			c-0.85,1.927-2.182,2.89-3.995,2.89c-1.021,0-1.997-0.469-2.933-1.408c-0.936-0.938-1.402-1.919-1.402-2.943
			c0-0.74,0.17-1.835,0.51-3.286c0.34-1.45,0.51-2.544,0.51-3.284c0-7.679-2.549-11.519-7.648-11.519
			c-2.834,0-5.215,1.208-7.141,3.619c-1.928,2.412-2.891,5.065-2.891,7.959c0,4.087,2.436,8.059,7.311,11.918
			c4.477,3.01,8.98,6.018,13.516,9.025C229.893,57.54,232.303,60.86,232.303,64.038z"/>
		<g>
			<path fill="#A7A9AC" d="M232.553,64.04c0.012,1.315-0.301,2.67-0.953,3.836c-0.639,1.177-1.578,2.165-2.635,2.956
				c-1.046,0.809-2.229,1.439-3.4,1.986c-1.196,0.561-2.438,1-3.713,1.35c-2.543,0.734-5.192,1.029-7.86,1.016
				c-2.668-0.021-5.308-0.396-7.897-0.932c-2.58-0.542-5.169-1.21-7.703-2.325c-1.265-0.571-2.552-1.215-3.75-2.241
				c-0.597-0.511-1.179-1.125-1.66-1.899c-0.479-0.772-0.83-1.748-0.883-2.755l-0.01-0.188l0.003-0.225l0.002-0.242
				c0.017-0.233,0.052-0.592,0.104-0.828c0.094-0.502,0.275-0.996,0.505-1.459c0.239-0.45,0.522-0.882,0.853-1.229l0.121-0.135
				l0.03-0.034l0.101-0.097l0.043-0.042l0.176-0.166c0.125-0.118,0.43-0.362,0.635-0.502c0.84-0.581,1.906-0.944,2.9-0.989
				c0.142-0.007,0.213-0.018,0.41-0.016l0.242,0.001c0.251,0.01,0.521,0.031,0.73,0.062c0.451,0.061,0.897,0.161,1.328,0.299
				c0.86,0.279,1.649,0.699,2.33,1.19c0.342,0.244,0.662,0.505,0.957,0.777l0.657,0.566l1.474,1.264l0.74,0.64l0.375,0.328
				c0.146,0.133,0.211,0.18,0.469,0.428l-0.469-0.357c0.664,0.39,1.663,0.682,2.687,0.9c1.032,0.23,2.139,0.377,3.259,0.483
				c1.122,0.106,2.268,0.161,3.42,0.197c1.141,0.05,2.204,0.043,3.21-0.089c0.981-0.101,1.873-0.479,2.033-0.684
				c0.164-0.119,0.312-0.518-0.188-1.379c-0.457-0.808-1.199-1.65-1.983-2.438c-0.795-0.792-1.663-1.551-2.56-2.286l-0.625-0.503
				l-0.729-0.514l-1.464-1.019l-2.929-2.039l-2.945-2.013l-0.762-0.518l-0.724-0.525c-0.489-0.362-0.972-0.724-1.446-1.097
				c-1.894-1.497-3.768-3.052-5.373-4.925c-1.594-1.867-2.928-4.038-3.686-6.411c-1.488-4.777-1.113-9.928,0.652-14.604
				c0.906-2.333,2.259-4.485,3.824-6.421c1.607-1.943,3.629-3.682,6.047-4.791c2.391-1.131,5.158-1.544,7.693-1.445
				c2.596,0.065,5.247,0.639,7.68,1.829c1.205,0.573,2.381,1.373,3.357,2.179c1.109,0.942,2.008,1.908,2.816,3.037
				c1.613,2.23,2.582,4.818,3.117,7.381l0.011,0.05l0.018,0.142c0.289,2.252,0.701,4.593,1.114,6.909l-0.041-0.197
				c0.193,0.809,0.456,1.664,0.443,2.897l-0.004,0.579l-0.037,0.705c-0.039,0.462-0.075,0.895-0.153,1.352
				c-0.142,0.902-0.368,1.824-0.726,2.734l-0.28,0.657c-0.081,0.175-0.14,0.317-0.3,0.618c-0.275,0.516-0.549,0.948-0.937,1.412
				c-0.737,0.906-1.87,1.72-3.104,2.075c-0.611,0.186-1.228,0.268-1.803,0.281l-0.109,0.004l-0.158-0.001l-0.146-0.002
				c-0.205-0.01-0.432-0.029-0.584-0.053c-0.338-0.046-0.67-0.123-0.983-0.223c-1.277-0.408-2.228-1.14-2.964-1.858
				c-0.731-0.722-1.465-1.671-1.889-2.941c-0.209-0.633-0.318-1.315-0.302-2.018c0-0.146,0.017-0.468,0.042-0.752
				c0.023-0.237,0.051-0.474,0.084-0.693c0.122-0.878,0.311-1.718,0.479-2.452c0.09-0.395,0.15-0.683,0.214-1.023
				c0.063-0.332,0.112-0.651,0.147-0.943c0.018-0.148,0.026-0.277,0.035-0.4c0.002-0.11,0.006-0.171,0.001-0.401l-0.026-1.051
				c-0.073-1.375-0.234-2.712-0.549-3.893c-0.314-1.182-0.815-2.161-1.443-2.757c-0.619-0.598-1.428-0.937-2.537-1.023
				c-0.066-0.009-0.139-0.009-0.208-0.012l-0.104-0.004l-0.053-0.002l-0.025-0.001h-0.015c0.026-0.001-0.077,0,0.056-0.001
				l-0.552,0.01c-0.206,0.015-0.481,0.036-0.751,0.085c-0.531,0.09-1.029,0.257-1.52,0.471c-0.973,0.439-1.872,1.188-2.674,2.167
				c-0.823,1.002-1.457,2.087-1.908,3.245c-0.445,1.144-0.655,2.448-0.643,3.676c0.031,1.22,0.303,2.472,0.842,3.687
				c1.071,2.443,3.021,4.67,5.207,6.621L212.271,44c3.851,2.931,7.723,5.833,11.646,8.66c2.032,1.362,3.906,2.954,5.569,4.769
				c0.822,0.911,1.58,1.9,2.146,3.01C232.201,61.537,232.57,62.778,232.553,64.04z M232.053,64.036
				c-0.031-2.361-1.441-4.459-3.057-6.154c-1.664-1.693-3.623-3.11-5.678-4.324c-4.129-2.521-8.293-4.99-12.465-7.452l0.01,0.006
				l-0.09-0.064c-2.559-1.828-5.043-3.993-6.801-6.977c-0.861-1.485-1.525-3.198-1.716-5.021c-0.178-1.81-0.036-3.586,0.464-5.34
				c0.481-1.744,1.348-3.363,2.385-4.768c1.047-1.432,2.44-2.807,4.203-3.728c0.875-0.463,1.834-0.783,2.799-0.977
				c0.479-0.098,0.961-0.159,1.515-0.197l0.59-0.025l0.429,0.003l0.362,0.012c1.92,0.063,4.163,0.788,5.771,2.298
				c1.621,1.488,2.486,3.367,3.004,5.095c0.524,1.751,0.725,3.46,0.795,5.125l0.029,1.232c0.004,0.151,0.002,0.471-0.012,0.741
				c-0.018,0.257-0.037,0.507-0.066,0.737c-0.056,0.465-0.127,0.897-0.207,1.313c-0.075,0.409-0.178,0.865-0.258,1.212
				c-0.174,0.75-0.316,1.398-0.406,2.028l-0.057,0.44c-0.007,0.095-0.019,0.152-0.021,0.388c-0.002,0.058,0.006,0.14,0.035,0.229
				c0.052,0.184,0.248,0.497,0.584,0.85c0.338,0.353,0.648,0.554,0.828,0.615c0.047,0.019,0.088,0.03,0.127,0.037
				c0.035,0.008-0.002,0-0.018,0.007l0.141,0.006l0.035,0.001c-0.027,0,0.088,0.002-0.06,0h0.009l0.033-0.001
				c0.184,0.003,0.331-0.015,0.449-0.047c0.234-0.064,0.404-0.156,0.646-0.413c0.111-0.113,0.25-0.327,0.339-0.479
				c0.027-0.03,0.127-0.236,0.209-0.405l0.178-0.388c0.213-0.503,0.371-1.064,0.48-1.663c0.062-0.292,0.096-0.619,0.129-0.914
				l0.039-0.435l0.021-0.563c0.046-0.296-0.075-0.939-0.227-1.607l-0.033-0.149l-0.008-0.048c-0.345-2.376-0.687-4.73-0.925-7.202
				l0.028,0.191c-0.367-2.095-1.066-4.068-2.172-5.754c-0.533-0.832-1.246-1.639-1.92-2.268c-0.828-0.739-1.614-1.309-2.522-1.827
				c-1.784-1.022-3.854-1.596-5.998-1.816c-2.198-0.245-4.282-0.078-6.276,0.668c-1.979,0.732-3.787,2.014-5.308,3.638
				c-1.532,1.663-2.866,3.501-3.821,5.549c-0.974,2.035-1.563,4.269-1.748,6.54c-0.214,2.293-0.059,4.588,0.635,6.754
				c0.675,2.167,1.815,4.171,3.356,5.874c1.534,1.704,3.323,3.224,5.231,4.571c0.479,0.338,0.964,0.667,1.447,0.988l0.744,0.486
				L209,51.113l3.059,1.838l3.072,1.812l1.536,0.906l0.771,0.449l0.819,0.542c1.009,0.688,2.003,1.41,2.97,2.215
				c0.963,0.817,1.914,1.676,2.752,2.867c0.407,0.611,0.818,1.29,0.991,2.31c0.072,0.487,0.066,0.99-0.041,1.499
				c-0.108,0.514-0.333,1.032-0.638,1.463c-0.622,0.872-1.432,1.355-2.146,1.684c-0.728,0.326-1.424,0.515-2.101,0.658
				c-1.339,0.275-2.66,0.363-3.896,0.399c-1.226,0.026-2.457,0.015-3.707-0.048c-1.248-0.066-2.51-0.174-3.812-0.402
				c-1.3-0.255-2.63-0.586-4.046-1.363l-0.132-0.073l-0.337-0.285l-2.811-2.384l-0.369-0.311l-0.441-0.383
				c-0.176-0.169-0.354-0.318-0.533-0.453c-0.357-0.271-0.723-0.464-1.085-0.593c-0.183-0.062-0.365-0.108-0.554-0.138l-0.229-0.033
				l-0.241-0.011c0.036-0.001-0.054,0.003-0.072,0.002c-0.297-0.002-0.494,0.062-0.729,0.192c-0.058,0.045-0.017-0.009-0.133,0.084
				l-0.183,0.159l-0.045,0.04c-0.066,0.064,0.078-0.074,0.062-0.061l-0.005,0.007l-0.011,0.012l-0.043,0.043
				c-0.121,0.114-0.197,0.226-0.278,0.331c-0.062,0.112-0.127,0.219-0.161,0.35c-0.023,0.078-0.02,0.043-0.045,0.127l-0.02,0.242
				l-0.004,0.061l-0.004,0.029c0.002-0.037-0.003,0.105,0.002-0.08v0.007l-0.002,0.054c-0.044,0.537,0.291,1.248,1.028,1.968
				c0.72,0.705,1.681,1.38,2.718,1.96c2.098,1.168,4.451,2.069,6.846,2.872c2.392,0.786,4.838,1.413,7.321,1.71
				c2.478,0.285,5.027,0.207,7.503-0.26c1.233-0.252,2.453-0.613,3.623-1.079c1.19-0.479,2.336-0.996,3.368-1.724
				c1.022-0.725,1.933-1.621,2.547-2.706C231.755,66.535,232.055,65.297,232.053,64.036z"/>
		</g>
	</g>
	<g>
		<path fill="#FFFFFF" d="M269.872,75.018c-2.154,1.586-3.854,2.381-5.101,2.381c-1.645,0-4.023-1.7-7.141-5.101
			c-2.21-2.38-4.393-4.788-6.545-7.226c-1.247-1.473-3.229-3.54-5.95-6.205l-0.255,0.17v7.48c0,0.455,0.184,1.118,0.553,1.998
			c0.368,0.879,0.553,1.571,0.553,2.082c0,0.795-0.411,1.487-1.232,2.082c-0.82,0.596-1.656,0.893-2.507,0.893
			c-1.474,0-2.692-0.481-3.655-1.444c-0.964-0.963-1.445-2.181-1.445-3.655v-11.22c0-0.68,0.086-1.713,0.256-3.103
			c0.17-1.388,0.256-2.422,0.256-3.103V28.183c0-3.456-0.237-6.233-0.706-8.33c-0.211-0.963-0.313-1.7-0.313-2.21
			c0-1.076,0.649-2.04,1.954-2.89c1.134-0.793,2.267-1.19,3.4-1.19c0.85,0,1.771,0.327,2.762,0.978
			c0.991,0.652,1.488,1.375,1.488,2.167c0,0.227-0.183,1.02-0.546,2.38c-0.361,1.36-0.543,3.457-0.543,6.29
			c0,0.907-0.092,8.472-0.271,22.695c0.229-0.226,3.301-3.031,9.217-8.415c4.892-4.533,7.764-6.8,8.616-6.8
			c3.015,0,4.466,1.842,4.353,5.525v0.85c-2.448,1.417-5.609,3.655-9.482,6.715c-4.898,3.797-7.348,6.319-7.348,7.565
			c0,0.114,1.537,1.899,4.611,5.354c2.9,3.287,4.723,5.328,5.463,6.121c3.414,3.568,6.603,6.007,9.562,7.31v2.72H269.872z"/>
		<g>
			<path fill="#A7A9AC" d="M270.02,75.221c-1.049,0.907-2.133,1.823-3.492,2.443c-0.663,0.298-1.488,0.562-2.344,0.46
				c-0.91-0.103-1.586-0.433-2.266-0.781c-2.62-1.44-4.624-3.545-6.574-5.438c-1.994-1.935-3.887-3.902-5.828-5.941
				c-1.818-1.89-3.799-3.803-5.791-5.652l2.532,0.237l-0.25,0.177l0.903-1.688l0.093,3.764l0.046,3.666
				c-0.006,0.084,0.146,0.609,0.355,1.08l0.185,0.441c0.065,0.171,0.149,0.381,0.211,0.562c0.128,0.373,0.25,0.771,0.333,1.266
				l0.053,0.393l0.013,0.225l0.005,0.112l-0.005,0.229l-0.013,0.235c-0.009,0.113-0.047,0.374-0.086,0.552
				c-0.162,0.707-0.436,1.235-0.781,1.711c-0.338,0.446-0.719,0.826-1.088,1.104l-0.141,0.109l-0.158,0.113l-0.193,0.133
				c-0.174,0.108-0.436,0.271-0.635,0.369c-0.81,0.429-1.809,0.717-2.83,0.721c-0.81,0.006-1.748-0.117-2.596-0.428
				c-0.867-0.305-1.689-0.804-2.352-1.412c-0.34-0.31-0.594-0.584-0.904-0.994c-0.271-0.365-0.513-0.764-0.709-1.18
				c-0.396-0.832-0.604-1.729-0.662-2.578c-0.031-0.432-0.018-0.855-0.01-1.131l0.023-0.94c0.023-1.255,0.1-2.509,0.146-3.764
				l0.169-3.764l0.1-1.882c0.021-0.58,0.082-1.398,0.176-2.014c0.179-1.316,0.438-2.533,0.587-3.71
				c0.151-1.091,0.163-2.428,0.231-3.662c0.12-2.509,0.227-5.018,0.286-7.527c0.082-2.509,0.13-5.019,0.14-7.528
				c0.013-2.5,0.014-5.041-0.073-7.498c-0.05-1.236-0.173-2.465-0.353-3.672c-0.091-0.603-0.199-1.2-0.334-1.784
				c-0.143-0.589-0.296-1.248-0.396-1.923c-0.024-0.172-0.047-0.349-0.061-0.532c-0.007-0.108-0.015-0.159-0.015-0.318
				c0.003-0.093-0.006-0.124,0.007-0.269c0.037-0.484,0.148-0.876,0.326-1.274c0.359-0.774,0.914-1.351,1.477-1.816
				c1.018-0.818,2.391-1.673,3.944-1.86c0.22-0.021,0.336-0.037,0.644-0.046c0.164,0.003,0.281-0.009,0.554,0.023
				c0.481,0.047,0.831,0.142,1.22,0.264c0.753,0.257,1.38,0.587,2.016,1.007c0.648,0.456,1.371,1.081,1.734,2.17
				c0.085,0.265,0.139,0.549,0.15,0.831c0.003,0.059,0.007,0.018,0.005,0.159l-0.002,0.089l-0.023,0.256l-0.044,0.302
				c-0.059,0.361-0.121,0.677-0.188,0.998c-0.123,0.634-0.295,1.293-0.34,1.75c-0.071,0.544-0.111,1.124-0.133,1.711
				c-0.045,1.182-0.005,2.385,0.036,3.619c0.062,2.541,0.142,5.033,0.159,7.549l0.122,15.06l-4.175-1.771l3.018-2.866l2.962-2.781
				c1.996-1.854,3.9-3.701,5.97-5.557c1.031-0.924,2.074-1.839,3.215-2.73c0.58-0.449,1.156-0.89,1.893-1.352
				c0.188-0.116,0.389-0.234,0.633-0.36c0.254-0.124,0.504-0.261,1.043-0.404c0.18-0.039,0.272-0.067,0.536-0.091
				c0.118-0.009,0.226-0.016,0.354-0.014l0.062,0.001l0.283,0.008c0.284,0.012,0.529,0.035,0.771,0.066
				c0.984,0.133,2.119,0.488,3.107,1.227c0.995,0.733,1.693,1.79,2.068,2.763c0.384,0.984,0.521,1.907,0.58,2.767
				c0.027,0.432,0.029,0.848,0.016,1.254l-0.021,0.968l-0.031,1.521l-1.256,0.715c-3.369,1.915-6.688,4.325-9.987,6.782
				c-1.606,1.21-3.222,2.456-4.621,3.74c-0.345,0.321-0.676,0.646-0.955,0.96c-0.278,0.301-0.521,0.646-0.58,0.755
				c-0.014,0.02-0.015,0.021-0.005-0.048l0.004-0.06l0.001-0.043v-0.021l-0.071-0.544c0.002,0,0.021,0.063,0.008,0.011
				c-0.023-0.098-0.06-0.196-0.104-0.29c-0.036-0.08-0.121-0.208-0.14-0.23l0.015,0.021c0.083,0.125,0.248,0.34,0.395,0.529
				l0.949,1.189l7.776,9.66c2.606,3.044,5.479,6.027,9.021,7.979l0.31,0.172l-0.022,0.268l-0.238,2.842L270.02,75.221z
				 M269.609,74.878l-0.217-2.58l0.285,0.438c-2.012-0.726-3.893-1.791-5.627-3.023c-1.742-1.227-3.363-2.602-4.908-4.084
				c-2.994-2.947-5.822-5.914-8.727-8.93l-1.076-1.168c-0.186-0.208-0.354-0.39-0.583-0.678l-0.044-0.056
				c-0.037-0.047-0.141-0.203-0.193-0.31c-0.062-0.12-0.117-0.245-0.16-0.37c-0.026-0.082-0.02-0.048-0.03-0.078
				c-0.144-1.055-0.039-0.312-0.071-0.557l0.001-0.035l0.002-0.07l0.009-0.14c0.004-0.099,0.019-0.167,0.029-0.252
				c0.053-0.325,0.135-0.571,0.217-0.791c0.348-0.845,0.729-1.345,1.103-1.845c0.376-0.489,0.756-0.917,1.141-1.333
				c1.535-1.643,3.138-3.024,4.775-4.384c3.213-2.655,6.463-5.336,10.239-7.633l-1.289,2.235l-0.015-1.062
				c0-0.271-0.012-0.532-0.036-0.774c-0.043-0.487-0.138-0.915-0.259-1.189c-0.125-0.281-0.228-0.378-0.327-0.449
				c-0.104-0.066-0.296-0.153-0.649-0.193l-0.238-0.021l-0.224-0.006l-0.063-0.001c0.087,0.001,0.151,0.001,0.228-0.006
				c0.18-0.022,0.189-0.023,0.287-0.048c0.209-0.059,0.15-0.054,0.104-0.023c-0.058,0.029-0.146,0.081-0.247,0.144
				c-0.411,0.258-0.916,0.634-1.402,1.019c-0.983,0.784-1.992,1.639-2.986,2.508l-12.047,10.681l-4.361,3.867l0.188-5.638
				l0.498-15.049c0.077-2.502,0.224-5.028,0.327-7.506c0.042-1.275,0.138-2.583,0.3-3.902c0.086-0.662,0.191-1.331,0.348-2.02
				c0.172-0.78,0.381-1.321,0.549-1.907l0.236-0.835l0.041-0.162c0.004-0.019,0.007-0.039,0.004,0.023
				c0.002,0.04,0.005-0.022,0.006-0.028c-0.001,0.102,0,0.021,0,0.041c0.008-0.032,0.01-0.06,0.007-0.096
				c0.008-0.129-0.192-0.46-0.541-0.743c-0.382-0.312-0.854-0.61-1.274-0.795c-0.201-0.089-0.457-0.172-0.601-0.201
				c-0.037-0.024-0.233-0.037-0.384-0.051l-0.297-0.002c-0.471,0.018-0.954,0.129-1.436,0.323c-0.259,0.105-0.435,0.191-0.697,0.342
				c-0.28,0.172-0.519,0.311-0.728,0.457c-0.426,0.301-0.774,0.644-0.974,1c-0.098,0.167-0.164,0.385-0.19,0.525
				c-0.011,0.011-0.013,0.138-0.021,0.201l-0.004,0.153c0.002,0.129,0.008,0.266,0.019,0.405c0.046,0.571,0.159,1.141,0.278,1.778
				c0.119,0.645,0.207,1.288,0.274,1.929c0.14,1.283,0.183,2.56,0.231,3.831c0.07,2.559-0.034,5.039,0.011,7.557
				c0.009,2.509,0.058,5.019,0.14,7.528c0.061,2.509,0.166,5.018,0.285,7.527c0.032,1.274,0.168,2.451,0.137,3.864
				c-0.029,1.327-0.16,2.592-0.192,3.776c-0.022,0.634-0.009,1.071,0.03,1.746l0.099,1.882l0.169,3.764
				c0.046,1.254,0.121,2.51,0.145,3.764l0.024,0.941c0.009,0.353,0.015,0.556,0.041,0.75c0.052,0.4,0.163,0.737,0.325,1.029
				c0.081,0.146,0.177,0.283,0.288,0.414c0.071,0.085,0.25,0.27,0.377,0.379c0.269,0.232,0.547,0.387,0.866,0.491
				c0.339,0.103,0.66,0.153,1.104,0.158c0.237-0.007,0.479-0.06,0.779-0.216l0.181-0.102l0.195-0.131l0.049-0.033l0.024-0.016
				c0.021-0.016-0.092,0.064-0.039,0.027l0.045-0.035c0.142-0.094,0.195-0.172,0.246-0.215c0.033-0.025,0.031-0.076,0.019,0.022
				c-0.01,0.022-0.008,0.132,0.001,0.089l0.02-0.234l0.002-0.028c-0.01,0.29-0.004,0.079-0.006,0.144V70.59l0.002-0.011
				l-0.008-0.074c-0.015-0.126-0.063-0.334-0.137-0.555l-0.109-0.322l-0.168-0.431c-0.25-0.69-0.554-1.36-0.629-2.534l0.041-3.862
				l0.094-3.764l0.027-1.137l0.875-0.551l0.26-0.163l1.438-0.906l1.097,1.143c1.926,2.01,3.854,3.979,5.658,6.232l5.213,6.329
				c0.891,1.064,1.742,2.127,2.635,3.102c0.888,0.984,1.818,1.938,2.834,2.676c0.492,0.358,1.062,0.68,1.515,0.812
				c0.507,0.162,1.077,0.086,1.694-0.076C267.279,76.157,268.473,75.553,269.609,74.878z"/>
		</g>
	</g>
	<g>
		<path fill="#FFFFFF" d="M297.412,57.933c0,7.31-0.227,12.467-0.68,15.469c-0.285,1.757-1.476,2.636-3.57,2.636
			c-3.174,0-4.59-1.586-4.25-4.761c-2.834,1.361-5.78,2.041-8.84,2.041c-2.947,0-5.752-0.737-8.415-2.211
			c-3.175-1.756-4.761-3.993-4.761-6.715c0-2.662,1.812-5.156,5.439-7.479c3.286-2.095,6.375-3.145,9.266-3.145h7.226v-2.024
			c0.056-5.903-1.7-8.856-5.271-8.856c-4.478,0-6.716,2.076-6.716,6.227c0,1.402-0.794,2.104-2.38,2.104
			c-0.964,0-1.97-0.438-3.018-1.317c-1.049-0.878-1.572-1.798-1.572-2.763c0-3.173,1.133-5.78,3.398-7.82
			c2.267-2.04,4.986-3.06,8.16-3.06C292.085,36.258,297.412,43.483,297.412,57.933z M288.827,60.993c0-1.133-0.851-1.699-2.55-1.699
			c-7.084,0-10.625,1.672-10.625,5.015c0,1.814,1.558,2.721,4.675,2.721c1.926,0,3.739-0.537,5.44-1.615
			C287.807,64.223,288.827,62.75,288.827,60.993z"/>
		<g>
			<path fill="#A7A9AC" d="M297.662,57.933c-0.001,2.329,0.027,4.659,0.083,6.995c0.054,2.338,0.157,4.676,0.129,7.059
				c-0.015,0.617-0.006,1.156-0.081,1.854c-0.098,0.752-0.387,1.562-0.986,2.229c-0.593,0.668-1.396,1.074-2.135,1.285
				c-0.74,0.226-1.484,0.283-2.146,0.293c-0.711,0-1.459-0.06-2.267-0.328c-0.794-0.26-1.659-0.779-2.258-1.553
				c-0.606-0.763-0.935-1.647-1.085-2.445c-0.15-0.811-0.152-1.557-0.111-2.268l3.024,2.137c-2.153,1.138-4.55,1.929-7.015,2.211
				c-0.613,0.078-1.232,0.121-1.851,0.134c-0.321,0.012-0.585,0.006-0.957,0.006c-0.278-0.007-0.541-0.019-0.894-0.048
				c-1.28-0.104-2.502-0.331-3.709-0.678c-1.2-0.354-2.346-0.858-3.426-1.438c-1.072-0.578-2.092-1.258-3.065-2.109
				c-0.952-0.844-1.83-1.865-2.413-3.09c-0.598-1.218-0.83-2.59-0.746-3.896c0.084-1.325,0.602-2.589,1.277-3.624
				c0.684-1.046,1.551-1.892,2.453-2.636c1.824-1.477,3.776-2.635,5.875-3.611c1.053-0.481,2.162-0.845,3.299-1.147
				c1.121-0.29,2.376-0.421,3.492-0.437c2.226-0.108,4.449-0.225,6.676-0.377l-1.32,1.32l-0.169-2.588
				c-0.067-0.785-0.169-1.605-0.333-2.355c-0.307-1.507-0.945-2.878-1.699-3.398c-0.371-0.266-0.766-0.374-1.291-0.412
				c-0.131-0.008-0.269-0.009-0.412-0.003c-0.086,0.007-0.439,0.016-0.55,0.034c-0.319,0.029-0.692,0.077-1.006,0.146
				c-0.646,0.136-1.194,0.359-1.588,0.627c-0.396,0.271-0.64,0.585-0.834,1.009c-0.192,0.423-0.31,0.985-0.337,1.626
				c-0.008,0.16-0.012,0.323-0.008,0.492v0.368l-0.004,0.182l-0.03,0.363c-0.085,0.836-0.479,1.904-1.329,2.677
				c-0.842,0.755-1.77,1.019-2.48,1.131c-0.188,0.032-0.352,0.043-0.529,0.062c-0.188,0.008-0.271,0.019-0.547,0.019l-0.174-0.002
				l-0.35-0.023c-0.195-0.021-0.377-0.046-0.561-0.082c-1.465-0.293-2.539-0.988-3.41-1.671c-0.865-0.703-1.885-1.661-2.42-3.288
				c-0.123-0.4-0.203-0.831-0.229-1.263c-0.004-0.125-0.01-0.177-0.009-0.364l0.003-0.162l0.004-0.324l0.046-0.831l0.092-0.795
				c0.286-2.124,1.202-4.272,2.578-5.968c0.344-0.425,0.713-0.818,1.096-1.191c0.205-0.188,0.363-0.346,0.611-0.555
				c0.176-0.144,0.301-0.259,0.553-0.45c0.883-0.689,1.746-1.22,2.727-1.67c1.932-0.887,4.051-1.31,6.068-1.276
				c1.94,0.026,3.857,0.313,5.734,0.938c1.875,0.6,3.656,1.613,5.122,2.928c1.472,1.318,2.582,2.938,3.38,4.613
				c0.795,1.686,1.299,3.435,1.65,5.176C297.537,50.987,297.67,54.466,297.662,57.933z M297.162,57.933
				c-0.021-3.429-0.443-6.901-1.618-10.073c-1.121-3.171-3.133-5.971-5.729-7.481c-1.287-0.773-2.705-1.23-4.17-1.498
				c-1.467-0.244-3.021-0.28-4.531-0.183c-2.881,0.188-5.281,1.459-6.99,3.604c-0.792,1-1.255,2.146-1.471,3.438l-0.065,0.49
				l-0.036,0.462c-0.017,0.625-0.018,0.398-0.02,0.453c-0.024,0.042,0.178,0.42,0.636,0.803c0.455,0.407,0.897,0.647,1.135,0.705
				l0.079,0.021c-0.009-0.001-0.018,0-0.025,0.004l0.148,0.008c-0.061,0,0.073,0,0.1,0.003l0.115-0.005
				c0.141-0.007,0.062-0.03-0.126,0.147c-0.202,0.192-0.237,0.417-0.215,0.401c0.024,0.037,0.03-0.667,0.09-1.18
				c0.114-1.075,0.378-2.233,0.974-3.351c0.582-1.116,1.543-2.132,2.627-2.753c1.082-0.639,2.216-0.935,3.269-1.08
				c0.539-0.073,1.026-0.102,1.569-0.109c0.322-0.006,0.4,0.002,0.744,0.01c0.289,0.011,0.582,0.037,0.879,0.081
				c1.188,0.164,2.466,0.734,3.387,1.622c0.924,0.886,1.484,1.944,1.814,2.95c0.336,1.012,0.48,1.994,0.561,2.947
				c0.077,0.96,0.068,1.868,0.025,2.809l-0.168,2.592l-0.093,1.404l-1.229-0.084c-2.226-0.152-4.45-0.269-6.677-0.377
				c-2.129-0.152-4.191,0.258-6.17,1.119c-1.961,0.832-3.867,1.993-5.425,3.413c-1.526,1.429-2.686,3.26-2.516,5.086
				c0.194,3.789,4.674,5.66,8.38,6.466c0.949,0.198,1.939,0.303,2.882,0.307l0.775-0.002l0.711-0.028
				c0.495-0.025,0.985-0.08,1.476-0.136c1.956-0.258,3.873-0.777,5.73-1.567l3.689-1.57l-0.666,3.707
				c-0.162,0.908-0.095,1.665,0.072,1.994c0.086,0.175,0.205,0.356,0.492,0.522c0.275,0.168,0.689,0.297,1.139,0.375
				c0.971,0.156,1.814,0.138,2.268-0.178c0.24-0.146,0.461-0.441,0.598-0.824c0.145-0.445,0.27-1.066,0.385-1.606
				c0.445-2.249,0.745-4.567,0.936-6.882C297.091,62.585,297.162,60.259,297.162,57.933z"/>
			<path fill="#A7A9AC" d="M288.577,61.005c0.001-0.357-0.104-0.613-0.333-0.787c-0.217-0.163-0.516-0.201-0.812-0.155
				c-0.621,0.092-1.17,0.508-1.906,0.833c-1.33,0.694-2.601,0.934-3.883,0.824c-1.259-0.103-2.734-0.537-3.847,0.056
				c-0.544,0.272-0.927,0.759-1.054,1.289c-0.065,0.267-0.062,0.544-0.008,0.815c0.049,0.253,0.178,0.586,0.316,0.71
				c0.303,0.201,0.51,0.051,0.835,0.044c0.322-0.019,0.813,0.015,1.356-0.024c1.185-0.078,2.184-0.334,3.173-0.56
				c0.506-0.106,1.015-0.249,1.563-0.395l0.973-0.225c0.189-0.037,0.279-0.031,0.445-0.038c0.152-0.019,0.32-0.033,0.474-0.061
				c0.634-0.085,1.315-0.231,1.841-0.633c0.533-0.389,0.85-1.036,0.865-1.707L288.577,61.005L288.577,61.005z M289.077,60.993
				c0.005,0.742-0.015,1.518-0.187,2.359c-0.16,0.841-0.459,1.751-0.923,2.557c-0.116,0.204-0.241,0.388-0.37,0.584
				c-0.128,0.19-0.326,0.401-0.438,0.549c-0.058,0.077-0.119,0.146-0.179,0.216l-0.047,0.053c0.045-0.019-0.021,0.029-0.024,0.041
				l-0.112,0.119c-0.156,0.148-0.318,0.297-0.488,0.436c-0.693,0.531-1.492,0.951-2.342,1.256c-0.853,0.29-1.759,0.449-2.656,0.447
				c-0.963,0.005-1.686-0.123-2.576-0.299c-0.856-0.199-1.784-0.434-2.721-1.113c-0.459-0.336-0.912-0.788-1.228-1.367
				c-0.326-0.587-0.447-1.189-0.44-1.818c0.187-1.995,1.27-3.493,2.508-4.544c1.219-1.045,2.549-2.25,4.062-2.853
				c1.507-0.597,3.071-0.549,4.569,0.093c0.673,0.312,1.564,0.646,2.312,1.145c0.372,0.254,0.738,0.548,0.972,0.938
				c0.234,0.371,0.304,0.846,0.311,1.19L289.077,60.993L289.077,60.993z"/>
		</g>
	</g>
	<g>
		<path fill="#FFFFFF" d="M321.382,41.953c0,1.53-2.324,2.607-6.973,3.23c-0.112,1.247-0.167,4.08-0.167,8.5v5.61
			c0,1.135,0.17,2.805,0.51,5.016c0.34,2.209,0.51,3.854,0.51,4.931c0,0.905-0.454,1.715-1.358,2.422
			c-0.908,0.709-1.814,1.062-2.722,1.062c-1.417,0-2.606-1.218-3.569-3.654c-0.736-1.87-1.104-3.684-1.104-5.439v-18.02
			c-2.607-0.396-4.109-0.651-4.505-0.765c-1.476-0.453-2.211-1.104-2.211-1.955c0-0.226,0.058-0.48,0.17-0.765
			c1.474-2.096,3.117-3.145,4.931-3.145c0.112,0,0.282,0,0.512,0c0.225,0.057,0.395,0.085,0.51,0.085
			c1.188,0,1.756-1.388,1.699-4.165v-6.205c-0.283-0.623-0.425-1.161-0.425-1.615c0-0.736,0.435-1.402,1.304-1.998
			c0.871-0.595,1.697-0.892,2.483-0.892c1.179,0,2.302,0.552,3.367,1.657c1.066,1.105,1.601,2.282,1.601,3.528
			c0,1.36-0.213,2.707-0.638,4.037c-0.426,1.332-0.609,2.707-0.553,4.123v0.34C319.172,38.328,321.382,39.688,321.382,41.953z"/>
		<g>
			<path fill="#A7A9AC" d="M321.632,41.965c0.007,0.371-0.15,0.793-0.384,1.088c-0.233,0.307-0.529,0.535-0.826,0.738
				c-0.6,0.407-1.261,0.658-1.912,0.91c-1.315,0.467-2.661,0.817-4.013,1.138l0.571-0.597c0.098,2.395,0.462,4.875,0.748,7.316
				c0.124,1.223,0.29,2.455,0.386,3.684c0.059,0.615,0.098,1.229,0.138,1.843c0.052,0.598,0.054,1.284,0.107,1.747
				c0.186,2.2,0.679,4.58,0.832,7.198c0.028,0.653,0.055,1.311,0.021,2.028c-0.008,0.365-0.084,1.031-0.273,1.518
				c-0.182,0.516-0.456,0.967-0.758,1.348c-0.604,0.756-1.329,1.229-1.97,1.562c-0.741,0.398-1.541,0.67-2.436,0.729
				c-0.22,0.023-0.442,0.009-0.661,0.004l-0.117-0.005l-0.028-0.005L311,74.201l-0.115-0.018c-0.059-0.009-0.269-0.047-0.394-0.076
				c-0.53-0.131-0.939-0.344-1.318-0.606c-0.736-0.537-1.186-1.188-1.551-1.808c-0.706-1.275-1.028-2.49-1.36-3.766
				c-0.297-1.263-0.498-2.556-0.51-3.859c-0.005-1.278,0.01-2.472-0.016-3.712c-0.071-4.917-0.541-9.833-0.965-14.75l1.474,1.715
				c-0.714-0.051-1.431-0.087-2.146-0.16c-0.728-0.07-1.416-0.128-2.219-0.242c-0.518-0.076-0.968-0.224-1.424-0.397
				c-0.454-0.179-0.949-0.414-1.479-0.834c-0.517-0.402-1.123-1.137-1.326-2.086c-0.053-0.232-0.076-0.46-0.084-0.687l0.004-0.281
				c-0.004-0.011,0.008-0.15,0.025-0.283c0.035-0.289,0.079-0.449,0.119-0.611c0.043-0.169,0.094-0.302,0.146-0.454l0.06-0.177
				l0.19-0.286c0.713-1.067,1.587-2.147,2.857-3.031c0.633-0.438,1.381-0.805,2.191-1.032c0.404-0.117,0.826-0.188,1.246-0.231
				l0.58-0.032l0.412-0.015l0.151-0.005l0.463,0.083c0.052,0.009,0.122,0.02,0.065,0.006l-0.076-0.009l-0.07-0.003h-0.018
				l-0.199,0.008l0.006-0.001l0.022-0.002l0.182-0.019c-0.098-0.003-0.239,0.014-0.35,0.05c-0.111,0.036-0.149,0.042-0.224,0.08
				c-0.125,0.053-0.242,0.145-0.315,0.202c-0.294,0.31-0.157,0.205-0.136-0.027c0.043-0.242,0.074-0.601,0.076-0.984
				c0.004-0.191,0.002-0.391-0.006-0.597l-0.021-0.729c-0.031-1.947-0.037-3.894-0.021-5.841l0.24,1.108
				c-0.257-0.613-0.521-1.281-0.613-2.251c-0.013-0.115-0.015-0.252-0.019-0.379l0.001-0.193l0.002-0.045l0.006-0.094
				c0.03-0.421,0.087-0.692,0.17-0.976c0.164-0.573,0.438-1.064,0.729-1.463c0.595-0.793,1.255-1.251,1.815-1.595l0.156-0.094
				l0.256-0.142c0.175-0.098,0.344-0.183,0.504-0.253c0.322-0.151,0.681-0.284,1.061-0.39c0.376-0.109,0.79-0.18,1.212-0.217
				c0.225-0.009,0.416-0.019,0.666-0.005l0.215,0.018l0.362,0.04c0.803,0.122,1.562,0.394,2.197,0.766
				c0.642,0.369,1.167,0.811,1.621,1.265c0.111,0.115,0.222,0.232,0.321,0.35l0.174,0.2l0.112,0.145l0.302,0.394
				c0.093,0.133,0.187,0.262,0.272,0.402c0.705,1.083,1.192,2.523,1.09,3.928l-0.008,0.13l-0.006,0.091l-0.007,0.045l-0.024,0.182
				l-0.058,0.384c-0.044,0.294-0.093,0.58-0.151,0.843c-0.111,0.539-0.268,1.067-0.445,1.579c-0.167,0.498-0.4,1.048-0.592,1.457
				c-0.107,0.234-0.196,0.442-0.27,0.624c-0.082,0.188-0.15,0.41-0.225,0.616c-0.135,0.423-0.248,0.858-0.334,1.303
				c-0.088,0.468-0.115,0.849-0.173,1.41l-0.668-0.74c1.437,0.307,2.873,0.676,4.224,1.324c0.663,0.34,1.324,0.746,1.818,1.35
				c0.507,0.589,0.782,1.382,0.762,2.146v0.009H321.632z M321.132,41.953c-0.012-0.659-0.24-1.296-0.698-1.762
				c-0.448-0.469-1.049-0.801-1.687-1.023c-1.279-0.457-2.688-0.555-4.071-0.555h-0.562l-0.105-0.74
				c-0.13-0.918-0.235-2.046-0.169-3.093c0.021-0.27,0.033-0.527,0.074-0.809l0.114-0.782c0.089-0.521,0.136-0.9,0.164-1.355
				c0.031-0.436,0.026-0.869,0.015-1.295c-0.005-0.219-0.022-0.418-0.041-0.609l-0.034-0.344l-0.019-0.182l-0.004-0.046
				c-0.001,0.009-0.002-0.052-0.003,0.014l-0.005-0.013l-0.013-0.052c-0.141-0.546-0.425-0.988-0.881-1.455l-0.174-0.173
				l-0.177-0.155l-0.137-0.123c0.01,0.016-0.058-0.042-0.082-0.06l-0.205-0.153c-0.267-0.195-0.523-0.34-0.748-0.416
				c-0.46-0.16-0.703-0.124-0.986-0.007c-0.294,0.079-1.097,0.689-0.994,0.699c0.012-0.005,0.051-0.062,0.088-0.165
				c0.011-0.051,0.034-0.08,0.04-0.26l-0.002,0.088l-0.001,0.045c0,0.024,0.004-0.185,0.002-0.097h0.001v-0.001l0.001-0.003
				c0.004-0.006-0.002-0.021,0.003-0.016c0.001,0,0.075,0.256,0.212,0.528l0.234,0.465l0.006,0.643
				c0.017,1.947,0.011,3.894-0.021,5.841l-0.018,0.731c-0.006,0.281-0.02,0.567-0.041,0.862c-0.044,0.588-0.114,1.203-0.293,1.909
				c-0.217,0.699-0.412,1.564-1.423,2.548c-0.243,0.23-0.572,0.455-0.911,0.618c-0.186,0.082-0.331,0.15-0.561,0.216
				c-0.229,0.064-0.488,0.112-0.704,0.135l-0.184,0.008l-0.021,0.001l-0.218,0.008l-0.039-0.001l-0.162-0.008
				c-0.12-0.007-0.187-0.018-0.258-0.028c-0.299-0.044-0.463-0.091-0.648-0.139l0.613,0.077c-0.686-0.021-0.733-0.042-1.036,0.009
				c-0.253,0.046-0.522,0.135-0.81,0.301c-0.576,0.324-1.192,0.917-1.748,1.639l0.25-0.462c-0.007,0.017-0.024,0.047-0.027,0.05
				c-0.008,0.009-0.012,0.02,0.002-0.092c0.001-0.046-0.006-0.098-0.01-0.02l-0.008,0.066l-0.002,0.033l-0.002,0.017l-0.002,0.004
				c-0.003,0.117,0.006-0.157,0.004-0.129v-0.001v-0.005c-0.002-0.049-0.014-0.1-0.027-0.158c-0.063-0.248-0.231-0.374-0.205-0.324
				c0.01,0.091,0.605,0.393,0.945,0.508c0.59,0.169,1.305,0.333,1.979,0.491l2.062,0.495l1.59,0.382l-0.115,1.333
				c-0.425,4.917-0.895,9.833-0.966,14.75c-0.016,1.218-0.031,2.483,0.008,3.662c0.05,1.156,0.321,2.299,0.708,3.394
				c0.402,1.063,0.948,2.181,1.602,2.962c0.322,0.395,0.692,0.695,1.006,0.812c0.146,0.055,0.312,0.078,0.387,0.062
				c0.027-0.009-0.032-0.006,0.062-0.011l0.116-0.004l0.058-0.004h0.029c-0.032-0.002,0.091,0.002-0.068-0.004l0.01-0.002
				c0.088-0.025,0.173-0.031,0.258-0.068c0.327-0.098,0.687-0.312,0.979-0.571c0.395-0.324,0.651-0.628,0.771-0.873
				c0.053-0.121,0.075-0.216,0.068-0.291c-0.002-0.101-0.021-0.055-0.048-0.305c-0.052-0.511-0.128-1.079-0.221-1.647
				c-0.339-2.273-0.896-4.722-0.932-7.441c-0.001-0.765,0.034-1.308,0.076-1.94c0.04-0.614,0.079-1.229,0.139-1.843
				c0.097-1.23,0.26-2.456,0.389-3.691c0.322-2.474,0.648-4.917,1.079-7.427l0.099-0.58l0.474-0.018
				c1.344-0.049,2.693-0.159,3.983-0.487c0.646-0.155,1.271-0.386,1.827-0.704c0.551-0.325,1.001-0.797,0.999-1.395L321.132,41.953
				L321.132,41.953z"/>
		</g>
	</g>
	<g>
		<path fill="#FFFFFF" d="M351.302,64.902c0,2.834-1.927,5.046-5.779,6.632c-3.005,1.246-6.148,1.868-9.436,1.868
			c-8.728,0-13.091-4.957-13.091-14.875c0-4.08,0.991-8.612,2.976-13.6c2.438-6.12,5.384-9.18,8.841-9.18
			c3.115,0,6.474,1.389,10.072,4.165c3.599,2.777,5.396,5.667,5.396,8.67c0,3.74-1.672,6.715-5.016,8.925
			c-2.945,1.984-6.46,2.975-10.54,2.975c-0.794,0-2.067-0.48-3.823-1.445c0.225,5.385,1.812,8.076,4.76,8.076
			c2.492,0,4.943-0.709,7.352-2.125c2.409-1.416,3.953-2.125,4.633-2.125C350.082,62.864,351.302,63.543,351.302,64.902z
			 M342.037,48.838c0-1.416-0.412-2.763-1.232-4.038c-0.821-1.275-1.913-1.913-3.272-1.913c-1.869,0-3.314,0.822-4.334,2.465
			c-0.852,1.417-1.275,3.089-1.275,5.015c0,1.077,0.367,1.955,1.105,2.635c0.734,0.68,1.67,1.02,2.805,1.02
			C339.967,54.023,342.037,52.295,342.037,48.838z"/>
		<g>
			<path fill="#A7A9AC" d="M351.552,64.909c0.016,1.257-0.4,2.543-1.144,3.58c-0.737,1.048-1.73,1.877-2.781,2.575
				c-1.07,0.703-2.164,1.265-3.326,1.795c-1.147,0.529-2.345,0.981-3.58,1.34c-1.232,0.357-2.505,0.638-3.795,0.797
				c-0.333,0.04-0.623,0.072-0.994,0.1c-0.316,0.021-0.58,0.057-0.943,0.062c-0.701,0.025-1.356,0.027-2.041-0.034
				c-1.358-0.097-2.753-0.399-4.103-0.938c-1.35-0.545-2.631-1.373-3.705-2.42c-2.174-2.121-3.26-4.962-3.675-7.604
				c-0.397-2.675-0.286-5.274,0.115-7.816c0.414-2.542,1.131-4.967,1.969-7.312c0.851-2.35,1.739-4.623,2.831-6.886
				c0.552-1.122,1.157-2.229,1.896-3.278c0.724-1.054,1.591-2.065,2.711-2.865c1.095-0.826,2.516-1.37,3.989-1.401
				c1.303-0.075,2.712,0.1,3.991,0.424c2.601,0.668,4.966,1.898,7.101,3.348c2.143,1.48,4.254,3.351,5.602,6.112
				c0.655,1.35,1.035,3.034,0.987,4.539c0.006,1.449-0.248,2.993-0.784,4.428c-1.064,2.914-3.44,5.233-5.688,6.634
				c-2.472,1.57-5.167,2.465-7.909,2.806c-0.684,0.089-1.363,0.142-2.041,0.171c-0.339,0.012-0.679,0.023-1.015,0.016l-0.595-0.009
				c-0.033,0.004-0.633-0.048-0.808-0.095c-0.995-0.208-1.651-0.512-2.309-0.812c-0.646-0.302-1.226-0.632-1.791-0.972l3.64-2.257
				c0.003,1.068,0.033,2.118,0.164,3.088c0.123,0.965,0.356,1.855,0.688,2.443c0.32,0.584,0.688,0.918,1.495,1.054
				c1.063,0.131,2.097,0.123,3.169-0.035c1.062-0.162,2.136-0.443,3.167-0.877c1.024-0.438,2.127-0.989,3.22-1.437
				c0.558-0.225,1.111-0.444,1.73-0.601c0.288-0.089,0.728-0.095,0.98-0.061c0.294,0.024,0.608,0.053,0.905,0.098
				c0.599,0.095,1.211,0.251,1.766,0.603c0.57,0.333,0.943,1.041,0.908,1.692v0.005H351.552z M351.052,64.902
				c-0.002-0.523-0.255-0.971-0.703-1.229c-0.438-0.27-1-0.367-1.55-0.421c-0.549-0.024-1.156-0.084-1.587,0.096
				c-0.501,0.174-1.007,0.454-1.497,0.741c-1.004,0.578-1.895,1.244-2.907,1.941c-1.019,0.68-2.115,1.287-3.304,1.746
				c-1.176,0.462-2.473,0.791-3.741,0.929c-0.776,0.079-1.636,0.009-2.472-0.31c-0.836-0.309-1.584-0.855-2.146-1.469
				c-1.126-1.252-1.657-2.637-2.039-3.936c-0.365-1.311-0.559-2.592-0.657-3.853l-0.331-4.17l3.97,1.914
				c0.504,0.242,1.005,0.475,1.473,0.665c0.456,0.189,0.942,0.336,1.147,0.35l1.23-0.076c0.537-0.041,1.069-0.101,1.593-0.188
				c2.079-0.321,4.094-1.031,5.768-2.028l0.386-0.244l0.312-0.206c0.214-0.134,0.417-0.275,0.611-0.422
				c0.396-0.289,0.758-0.602,1.087-0.932c0.663-0.66,1.176-1.399,1.542-2.218c0.358-0.83,0.589-1.71,0.648-2.697
				c0.086-0.931-0.044-1.696-0.376-2.57c-0.655-1.718-2.136-3.379-3.811-4.872c-1.728-1.5-3.562-2.881-5.604-3.729
				c-1.035-0.426-2.045-0.712-3.181-0.816c-0.966-0.103-1.973,0.131-2.896,0.665c-1.842,1.121-3.254,3.137-4.286,5.246
				c-2.052,4.283-3.224,9.133-3.149,13.765c0.147,4.594,1.095,9.347,3.729,11.994c2.558,2.679,7.349,3.465,11.981,3.25
				c2.307-0.152,4.71-0.631,6.845-1.617c1.06-0.504,2.051-1.176,2.783-2.081c0.74-0.899,1.136-2.044,1.132-3.226L351.052,64.902
				L351.052,64.902z"/>
			<path fill="#A7A9AC" d="M341.787,48.848c0.017-0.725-0.229-1.359-0.67-1.915c-0.443-0.544-1.06-0.931-1.641-1.246
				c-0.564-0.296-0.985-0.351-1.239-0.413c-0.28-0.047-0.372-0.156-0.893-0.295c-0.415-0.135-0.934-0.339-1.481-0.346
				c-0.56-0.028-1.162,0.188-1.609,0.617c-0.89,0.875-1.168,2.331-0.85,3.598c0.135,0.629,0.343,1.289,0.545,1.824
				c0.105,0.052,0.197,0.207,0.29,0.29c0.101,0.082,0.177,0.145,0.289,0.196c0.042,0.011,0.148,0.088,0.141,0.045l0.227,0.144
				c0.019-0.011,0.023-0.029,0.028-0.036c0.062-0.014,0.208,0.02,0.323,0.015c0.122,0.002,0.265,0.012,0.437,0.007l0.761,0.003
				c0.555,0.011,1.07,0.005,1.541,0.002c0.473-0.003,0.937,0.102,1.472,0.08c0.528-0.01,1.17-0.218,1.623-0.716
				c0.456-0.488,0.695-1.181,0.708-1.865L341.787,48.848L341.787,48.848z M342.287,48.838c0.006,0.729,0.078,1.463,0.062,2.313
				c-0.011,0.838-0.166,1.857-0.712,2.773c-0.532,0.913-1.373,1.649-2.254,2.051c-0.887,0.41-1.782,0.596-2.64,0.692
				c-0.518,0.035-0.75,0.059-1.363,0.023c-0.533-0.043-1.097-0.14-1.648-0.351c-0.568-0.195-1.063-0.477-1.599-0.872
				c-0.141-0.107-0.282-0.224-0.41-0.335l-0.181-0.198c-0.28-0.269-0.413-0.455-0.607-0.706c-0.354-0.483-0.635-1.041-0.812-1.609
				c-0.176-0.575-0.222-1.119-0.195-1.77c0.123-0.878,0.424-1.64,0.769-2.41c0.721-1.528,1.463-2.813,2.293-4.193
				c0.436-0.674,0.914-1.421,1.63-2.077c0.716-0.649,1.607-1.176,2.606-1.36c0.893-0.222,2.246-0.052,3.199,0.607
				c0.985,0.635,1.546,1.661,1.739,2.554c0.185,0.875,0.184,1.779,0.16,2.588c-0.022,0.797-0.054,1.579-0.039,2.27L342.287,48.838
				L342.287,48.838z"/>
		</g>
	</g>
</g>
<g>
	<path fill="#A7A9AC" d="M117.425,112.376c0,0.188-0.147,0.28-0.44,0.28c-0.32,0-0.513-0.135-0.58-0.399
		c-0.014-0.041-0.02-0.301-0.02-0.78c0-0.134-0.02-0.24-0.06-0.319c-0.747,0.547-1.554,0.819-2.42,0.819c-0.6,0-1.18-0.166-1.74-0.5
		c-0.64-0.373-0.96-0.841-0.96-1.399c0-0.546,0.38-1.079,1.14-1.601c0.693-0.479,1.333-0.72,1.92-0.72h1.98
		c0.08-0.08,0.12-0.221,0.12-0.42c0-0.894-0.074-1.565-0.22-2.021c-0.24-0.762-0.713-1.141-1.42-1.141
		c-0.507,0-0.974,0.32-1.4,0.959c-0.387,0.588-0.58,1.147-0.58,1.682c0,0.025,0,0.066,0,0.119c0,0.054,0,0.088,0,0.101
		c0,0.106-0.054,0.159-0.16,0.159c-0.133,0-0.28-0.079-0.44-0.239s-0.24-0.3-0.24-0.42c0-0.373,0.113-0.843,0.34-1.41
		c0.227-0.565,0.473-0.996,0.74-1.289c0.333-0.36,0.747-0.541,1.24-0.541c0.76,0,1.46,0.24,2.1,0.722
		c0.68,0.52,1.026,1.146,1.04,1.879L117.425,112.376z M116.365,109.197c0-0.533-0.414-0.801-1.24-0.801
		c-0.653,0-1.227,0.113-1.72,0.34c-0.627,0.295-0.94,0.733-0.94,1.32c0,0.36,0.167,0.641,0.5,0.84c0.28,0.174,0.613,0.261,1,0.261
		c0.573,0,1.117-0.188,1.63-0.56C116.108,110.225,116.365,109.757,116.365,109.197z"/>
	<path fill="#A7A9AC" d="M128.825,105.796c0,0.08-0.007,0.193-0.02,0.34c-0.28,1.334-0.42,2.408-0.42,3.222
		c0,0.414,0.02,1.047,0.06,1.899s0.06,1.492,0.06,1.92c0,0.826-0.067,1.427-0.2,1.8c-0.16,0.44-0.467,0.807-0.92,1.101
		c-0.454,0.294-0.92,0.44-1.4,0.44c-0.56,0-1.207-0.121-1.94-0.36c-0.933-0.294-1.4-0.647-1.4-1.06c0-0.361,0.14-0.541,0.42-0.541
		c0.12,0,0.227,0.079,0.32,0.239c0.133,0.228,0.22,0.354,0.26,0.381c0.106,0.105,0.38,0.206,0.82,0.3c0.4,0.106,0.7,0.159,0.9,0.159
		c0.747,0,1.313-0.293,1.7-0.879c0.333-0.493,0.5-1.141,0.5-1.94c0-0.854-0.073-1.532-0.22-2.039c-0.64,0.84-1.407,1.26-2.3,1.26
		c-0.267,0-0.58-0.09-0.94-0.27c-0.36-0.181-0.627-0.377-0.8-0.591c-0.36-0.427-0.54-1.101-0.54-2.021
		c0-1.133,0.207-2.354,0.62-3.659c0.533-1.692,1.233-2.541,2.1-2.541c0.693,0,1.427,0.627,2.2,1.881
		c0.08,0.146,0.207,0.34,0.38,0.58C128.238,105.47,128.492,105.598,128.825,105.796z M127.625,106.896c0-0.279-0.1-0.513-0.3-0.699
		c-0.04-0.562-0.18-1.04-0.42-1.439c-0.307-0.494-0.72-0.74-1.24-0.74c-0.36,0-0.72,0.406-1.08,1.221
		c-0.267,0.613-0.447,1.187-0.54,1.72c-0.133,0.801-0.2,1.479-0.2,2.041c0,1.64,0.473,2.459,1.42,2.459c0.72,0,1.32-0.601,1.8-1.8
		C127.438,108.684,127.625,107.764,127.625,106.896z"/>
	<path fill="#A7A9AC" d="M135.746,112.376c0,0.188-0.147,0.28-0.44,0.28c-0.32,0-0.513-0.135-0.58-0.399
		c-0.014-0.041-0.02-0.301-0.02-0.78c0-0.134-0.02-0.24-0.06-0.319c-0.747,0.547-1.554,0.819-2.42,0.819c-0.6,0-1.18-0.166-1.74-0.5
		c-0.64-0.373-0.96-0.841-0.96-1.399c0-0.546,0.38-1.079,1.14-1.601c0.693-0.479,1.333-0.72,1.92-0.72h1.98
		c0.08-0.08,0.12-0.221,0.12-0.42c0-0.894-0.074-1.565-0.22-2.021c-0.24-0.762-0.713-1.141-1.42-1.141
		c-0.507,0-0.974,0.32-1.4,0.959c-0.387,0.588-0.58,1.147-0.58,1.682c0,0.025,0,0.066,0,0.119c0,0.054,0,0.088,0,0.101
		c0,0.106-0.054,0.159-0.16,0.159c-0.133,0-0.28-0.079-0.44-0.239c-0.16-0.16-0.24-0.3-0.24-0.42c0-0.373,0.113-0.843,0.34-1.41
		c0.227-0.565,0.473-0.996,0.74-1.289c0.333-0.36,0.747-0.541,1.24-0.541c0.76,0,1.46,0.24,2.1,0.722
		c0.68,0.52,1.026,1.146,1.04,1.879L135.746,112.376z M134.686,109.197c0-0.533-0.414-0.801-1.24-0.801
		c-0.653,0-1.227,0.113-1.72,0.34c-0.627,0.295-0.94,0.733-0.94,1.32c0,0.36,0.167,0.641,0.5,0.84c0.28,0.174,0.613,0.261,1,0.261
		c0.573,0,1.117-0.188,1.63-0.56C134.429,110.225,134.686,109.757,134.686,109.197z"/>
	<path fill="#A7A9AC" d="M146.345,111.936c-0.28,0.174-0.494,0.262-0.64,0.262c-0.093,0-0.227-0.047-0.4-0.141
		c0-0.214,0-0.574,0-1.082c0-0.469,0-0.828,0-1.082c0-4.117-0.421-6.177-1.263-6.177c-0.5,0-0.935,0.642-1.303,1.92
		c-0.29,1.027-0.434,1.896-0.434,2.601v2c0,0.106,0.03,0.258,0.09,0.451c0.06,0.192,0.09,0.336,0.09,0.43
		c0,0.107-0.073,0.213-0.22,0.32c-0.147,0.106-0.273,0.16-0.38,0.16c-0.12,0-0.253-0.084-0.4-0.25
		c-0.146-0.168-0.22-0.312-0.22-0.431v-4.021c0-0.428-0.074-0.967-0.22-1.621c-0.187-0.825-0.413-1.239-0.68-1.239
		c-0.147,0-0.367,0.188-0.66,0.562c-1,1.278-1.5,2.854-1.5,4.719c0,0.229,0.026,0.563,0.08,1.011c0.053,0.446,0.08,0.776,0.08,0.989
		c0,0.399-0.167,0.602-0.5,0.602c-0.16,0-0.3-0.066-0.42-0.201c-0.053-0.066-0.113-0.365-0.18-0.898
		c-0.067-0.479-0.1-0.808-0.1-0.979v-4.721c0-1.359,0.16-2.04,0.48-2.04c0.133,0,0.27,0.062,0.41,0.189
		c0.14,0.127,0.21,0.258,0.21,0.391c0,0.279-0.04,0.646-0.12,1.101c-0.08,0.586-0.127,0.953-0.14,1.101l0.1,0.1
		c0.253-0.572,0.507-1.146,0.76-1.72c0.36-0.733,0.786-1.101,1.28-1.101c0.693,0,1.293,0.747,1.8,2.239c0.133-0.16,0.3-0.492,0.5-1
		c0.2-0.506,0.38-0.866,0.54-1.08c0.253-0.319,0.567-0.479,0.94-0.479c0.36,0,0.76,0.242,1.2,0.723
		c0.813,0.869,1.22,2.438,1.22,4.71V111.936L146.345,111.936z"/>
	<path fill="#A7A9AC" d="M153.464,109.816c0,0.588-0.393,1.113-1.18,1.58c-0.707,0.428-1.374,0.641-2,0.641
		c-1.787,0-2.68-1.133-2.68-3.4c0-1,0.18-2.072,0.54-3.219c0.48-1.494,1.093-2.24,1.84-2.24c0.64,0,1.34,0.323,2.1,0.971
		c0.76,0.646,1.14,1.289,1.14,1.93c0,0.827-0.333,1.547-1,2.16s-1.42,0.92-2.26,0.92c-0.08,0-0.25-0.066-0.51-0.2
		c-0.26-0.133-0.437-0.199-0.53-0.199c-0.173,0-0.26,0.054-0.26,0.16c0,1.533,0.506,2.299,1.52,2.299c0.52,0,1-0.172,1.44-0.52
		c0.267-0.199,0.56-0.515,0.88-0.939c0.253-0.334,0.42-0.5,0.5-0.5C153.311,109.257,153.464,109.443,153.464,109.816z
		 M152.084,106.136c0-0.466-0.133-0.901-0.4-1.31c-0.267-0.406-0.62-0.61-1.06-0.61c-0.534,0-0.967,0.334-1.3,1
		c-0.28,0.562-0.42,1.142-0.42,1.74c0,0.387,0.124,0.711,0.37,0.971c0.246,0.261,0.563,0.39,0.95,0.39c0.546,0,1-0.232,1.36-0.699
		C151.917,107.191,152.084,106.697,152.084,106.136z"/>
	<path fill="#A7A9AC" d="M164.424,107.357c0,1.16-0.16,2.133-0.48,2.92c-0.44,1.094-1.16,1.641-2.16,1.641
		c-0.253,0-0.594-0.074-1.02-0.221c-0.333-0.12-0.667-0.24-1-0.359c-0.027,0.08-0.04,0.166-0.04,0.26
		c0,0.066,0.006,0.163,0.02,0.289c0.013,0.127,0.02,0.225,0.02,0.291c0,0.199-0.114,0.301-0.34,0.301
		c-0.226,0-0.413-0.095-0.56-0.28c-0.093-0.095-0.167-0.486-0.22-1.181c-0.04-0.547-0.06-0.973-0.06-1.279v-0.12l0.38-11.16h0.28
		c0.187,0,0.363,0.097,0.53,0.29s0.25,0.391,0.25,0.59c0,0.493-0.063,1.227-0.19,2.2s-0.19,1.707-0.19,2.2c0,0.054,0,0.308,0,0.761
		c0.106-0.041,0.24-0.192,0.4-0.461c0.2-0.333,0.373-0.565,0.52-0.699c0.267-0.239,0.593-0.36,0.98-0.36
		c0.653,0,1.247,0.268,1.78,0.801c0.48,0.479,0.8,1.061,0.96,1.74C164.377,105.97,164.424,106.583,164.424,107.357z
		 M163.364,107.466c0-0.827-0.086-1.544-0.26-2.146c-0.253-0.938-0.68-1.403-1.28-1.403c-0.734,0-1.313,0.541-1.74,1.623
		c-0.333,0.856-0.5,1.719-0.5,2.588c0,0.774,0.133,1.438,0.4,1.985c0.333,0.734,0.84,1.103,1.52,1.103
		c0.68,0,1.187-0.479,1.52-1.442C163.251,109.091,163.364,108.322,163.364,107.466z"/>
	<path fill="#A7A9AC" d="M171.524,103.957c-0.111,0.588-0.215,1.174-0.312,1.76c-0.125,0.627-0.188,1.215-0.188,1.762v6.26
		c0,0.894-0.27,1.603-0.81,2.13c-0.54,0.526-1.263,0.79-2.17,0.79c-0.493,0-1.047-0.135-1.66-0.399
		c-0.707-0.294-1.193-0.659-1.46-1.101c-0.067-0.12-0.1-0.239-0.1-0.36c0-0.387,0.187-0.58,0.56-0.58c0.08,0,0.167,0.027,0.26,0.08
		c0.227,0.24,0.453,0.474,0.68,0.701c0.453,0.412,1.026,0.619,1.72,0.619c0.88,0,1.467-0.308,1.76-0.92
		c0.173-0.388,0.26-1.087,0.26-2.101c0-0.134-0.027-0.399-0.08-0.801c-0.053-0.332-0.067-0.626-0.04-0.879
		c-0.373,0.346-0.64,0.566-0.8,0.659c-0.293,0.187-0.613,0.28-0.96,0.28c-0.907,0-1.594-0.354-2.06-1.062
		c-0.414-0.612-0.62-1.394-0.62-2.34c0-1.8,0.027-3.32,0.08-4.56c0.053-0.428,0.287-0.641,0.7-0.641c0.506,0,0.733,0.086,0.68,0.26
		c-0.253,0.693-0.38,2.246-0.38,4.66c0,1.867,0.53,2.801,1.591,2.801c0.65,0,1.167-0.5,1.552-1.5
		c0.292-0.773,0.431-1.555,0.417-2.342v-2.279c0.013-0.227,0.03-0.514,0.05-0.858c0.02-0.349,0.237-0.508,0.65-0.479
		C171.325,103.557,171.551,103.704,171.524,103.957z"/>
	<path fill="#A7A9AC" d="M186.164,108.018c0,0.426-0.167,0.64-0.5,0.64c-0.133,0-0.273-0.026-0.42-0.08c0,0.681,0.166,1.44,0.5,2.28
		c-0.014,0.174-0.098,0.312-0.25,0.42c-0.153,0.106-0.323,0.16-0.51,0.16c-0.16,0-0.34-0.047-0.541-0.142
		c-0.105-0.213-0.159-0.546-0.159-1c0-0.119,0.007-0.34,0.021-0.66c0-0.319,0-0.538,0-0.659c0-0.24-0.021-0.399-0.061-0.479
		c-0.12-0.014-0.29-0.008-0.51,0.02c-0.221,0.027-0.377,0.039-0.471,0.039c-0.574,0-1.474,0.08-2.699,0.24
		c-1.4,0.188-2.208,0.374-2.42,0.561c-0.12,0.095-0.247,0.574-0.38,1.439c-0.107,0.707-0.167,1.227-0.18,1.561
		c-0.067,0.095-0.16,0.142-0.28,0.142c-0.173,0-0.367-0.088-0.58-0.261c-0.213-0.174-0.32-0.34-0.32-0.5
		c0-0.08,0.053-0.26,0.16-0.54c0.107-0.279,0.167-0.453,0.18-0.521c0.227-1.479,0.66-3.113,1.3-4.9c1.76-5,3.12-7.5,4.08-7.5
		c1.026,0,1.819,1.308,2.38,3.921c0.2,0.92,0.434,2.68,0.7,5.28c0.08,0.066,0.28,0.14,0.601,0.22
		C186.044,107.75,186.164,107.857,186.164,108.018z M184.225,107.438c-0.334-2.348-0.547-3.768-0.641-4.261
		c-0.439-2.239-0.906-3.354-1.4-3.34c-0.547,0.027-1.231,1.054-2.06,3.081c-0.467,1.279-0.927,2.561-1.38,3.84
		c-0.08,0.174-0.167,0.434-0.26,0.779c-0.053,0.32,0.04,0.48,0.28,0.48c0.08,0,0.486-0.066,1.22-0.201
		C180.557,107.71,181.971,107.583,184.225,107.438z"/>
	<path fill="#A7A9AC" d="M193.204,99.078c0,0.307-0.04,0.701-0.12,1.182c-0.094,0.629-0.152,1.022-0.18,1.182
		c-0.04,0.414-0.107,1.789-0.2,4.127c-0.08,2.136-0.12,3.316-0.12,3.545c0,1.428,0.127,2.436,0.381,3.022
		c-0.094,0.146-0.214,0.222-0.359,0.222c-0.135,0-0.285-0.066-0.451-0.2s-0.27-0.267-0.311-0.399c0-0.268-0.039-0.674-0.119-1.221
		c-0.787,1-1.541,1.5-2.26,1.5c-0.867,0-1.533-0.326-2-0.98c-0.4-0.559-0.601-1.299-0.601-2.219c0-1.121,0.206-2.281,0.62-3.48
		c0.533-1.572,1.24-2.358,2.119-2.358c0.373,0,0.754,0.14,1.141,0.42c0.08,0.054,0.393,0.333,0.939,0.84
		c0.133-0.909,0.2-2.903,0.2-5.979c0.093-0.094,0.22-0.141,0.38-0.141c0.254,0,0.473,0.094,0.659,0.28
		C193.111,98.604,193.204,98.825,193.204,99.078z M191.704,106.477c0-0.586-0.134-1.112-0.399-1.58
		c-0.32-0.56-0.754-0.84-1.301-0.84c-0.666,0-1.199,0.68-1.6,2.041c-0.32,1.025-0.48,1.992-0.48,2.899
		c0,0.586,0.094,1.093,0.28,1.521c0.253,0.56,0.634,0.84,1.14,0.84c0.827,0,1.453-0.642,1.881-1.92
		C191.545,108.518,191.704,107.531,191.704,106.477z"/>
	<path fill="#A7A9AC" d="M199.965,112.376c0,0.188-0.146,0.28-0.441,0.28c-0.318,0-0.512-0.135-0.578-0.399
		c-0.014-0.041-0.021-0.301-0.021-0.78c0-0.134-0.02-0.24-0.06-0.319c-0.747,0.547-1.554,0.819-2.421,0.819
		c-0.601,0-1.18-0.166-1.739-0.5c-0.64-0.373-0.96-0.841-0.96-1.399c0-0.546,0.38-1.079,1.141-1.601
		c0.692-0.479,1.332-0.72,1.92-0.72h1.979c0.08-0.08,0.12-0.221,0.12-0.42c0-0.894-0.074-1.565-0.221-2.021
		c-0.24-0.762-0.713-1.141-1.42-1.141c-0.507,0-0.974,0.32-1.399,0.959c-0.388,0.588-0.58,1.147-0.58,1.682c0,0.025,0,0.066,0,0.119
		c0,0.054,0,0.088,0,0.101c0,0.106-0.054,0.159-0.16,0.159c-0.134,0-0.28-0.079-0.44-0.239s-0.238-0.3-0.238-0.42
		c0-0.373,0.111-0.843,0.34-1.41c0.227-0.565,0.474-0.996,0.738-1.289c0.334-0.36,0.748-0.541,1.24-0.541
		c0.76,0,1.461,0.24,2.102,0.722c0.68,0.52,1.025,1.146,1.039,1.879L199.965,112.376z M198.904,109.197
		c0-0.533-0.414-0.801-1.24-0.801c-0.652,0-1.227,0.113-1.721,0.34c-0.627,0.295-0.939,0.733-0.939,1.32
		c0,0.36,0.167,0.641,0.5,0.84c0.28,0.174,0.613,0.261,1,0.261c0.573,0,1.117-0.188,1.631-0.56
		C198.646,110.225,198.904,109.757,198.904,109.197z"/>
	<path fill="#A7A9AC" d="M210.564,111.936c-0.281,0.174-0.494,0.262-0.642,0.262c-0.094,0-0.228-0.047-0.399-0.141
		c0-0.214,0-0.574,0-1.082c0-0.469,0-0.828,0-1.082c0-4.117-0.422-6.177-1.264-6.177c-0.5,0-0.935,0.642-1.303,1.92
		c-0.29,1.027-0.436,1.896-0.436,2.601v2c0,0.106,0.03,0.258,0.09,0.451c0.062,0.192,0.091,0.336,0.091,0.43
		c0,0.107-0.072,0.213-0.22,0.32c-0.146,0.106-0.272,0.16-0.381,0.16c-0.119,0-0.252-0.084-0.399-0.25
		c-0.146-0.168-0.22-0.312-0.22-0.431v-4.021c0-0.428-0.073-0.967-0.221-1.621c-0.187-0.825-0.412-1.239-0.68-1.239
		c-0.146,0-0.367,0.188-0.66,0.562c-1,1.278-1.5,2.854-1.5,4.719c0,0.229,0.026,0.563,0.08,1.011c0.053,0.446,0.08,0.776,0.08,0.989
		c0,0.399-0.167,0.602-0.5,0.602c-0.16,0-0.301-0.066-0.42-0.201c-0.055-0.066-0.113-0.365-0.18-0.898
		c-0.067-0.479-0.102-0.808-0.102-0.979v-4.721c0-1.359,0.16-2.04,0.479-2.04c0.135,0,0.271,0.062,0.41,0.189
		c0.142,0.127,0.211,0.258,0.211,0.391c0,0.279-0.041,0.646-0.121,1.101c-0.079,0.586-0.127,0.953-0.139,1.101l0.101,0.1
		c0.253-0.572,0.506-1.146,0.76-1.72c0.358-0.733,0.786-1.101,1.278-1.101c0.693,0,1.293,0.747,1.802,2.239
		c0.133-0.16,0.3-0.492,0.5-1c0.198-0.506,0.38-0.866,0.539-1.08c0.254-0.319,0.567-0.479,0.94-0.479
		c0.359,0,0.76,0.242,1.199,0.723c0.812,0.869,1.221,2.438,1.221,4.71v3.685H210.564z"/>
	<path fill="#A7A9AC" d="M225.904,110.477c0,0.28-0.188,0.521-0.562,0.721c-0.32,0.188-0.628,0.279-0.922,0.279
		c-1.109,0-2.212-0.761-3.309-2.279c-0.479-0.68-1.188-1.939-2.125-3.779c-0.399,0.453-0.827,1.02-1.281,1.699
		c-0.588,0.867-0.882,1.474-0.882,1.82c0,1.399,0.159,2.358,0.479,2.879l0.04,0.341c-0.146,0.173-0.307,0.261-0.479,0.261
		c-0.294,0-0.526-0.207-0.7-0.621c-0.094-0.213-0.207-0.683-0.34-1.41c-0.133-0.727-0.193-1.209-0.18-1.449l0.358-9.779
		c0-0.053-0.01-0.116-0.028-0.19c-0.021-0.073-0.031-0.13-0.031-0.17c0-0.493,0.188-0.739,0.561-0.739c0.2,0,0.461,0.1,0.78,0.299
		c0.319,0.201,0.479,0.395,0.479,0.58c0,0.08-0.048,0.141-0.141,0.181c-0.134,0.067-0.206,0.106-0.221,0.12
		c-0.106,0.093-0.188,0.394-0.239,0.9c-0.254,2.772-0.38,4.866-0.38,6.28l0.101,0.101c2.134-2.895,3.267-4.428,3.399-4.601
		c1.854-2.36,3.08-3.541,3.681-3.541c0.079,0,0.146,0.007,0.199,0.021c0.015,0.039,0.127,0.199,0.34,0.479
		c0.146,0.2,0.222,0.374,0.222,0.521c0,0.187-0.08,0.279-0.24,0.279c-0.027,0-0.107-0.017-0.24-0.05s-0.213-0.05-0.24-0.05
		c-0.24,0-0.873,0.566-1.9,1.697c-0.973,1.091-1.539,1.816-1.699,2.176c-0.133,0.293-0.199,0.546-0.199,0.759
		c0,0.933,0.475,2.188,1.42,3.772c1.014,1.703,1.934,2.556,2.761,2.556c0.146,0,0.347-0.058,0.601-0.17
		c0.252-0.113,0.445-0.17,0.58-0.17C225.791,110.197,225.904,110.291,225.904,110.477z"/>
	<path fill="#A7A9AC" d="M231.463,109.816c0,0.588-0.393,1.113-1.18,1.58c-0.707,0.428-1.373,0.641-2,0.641
		c-1.787,0-2.68-1.133-2.68-3.4c0-1,0.18-2.072,0.539-3.219c0.479-1.494,1.094-2.24,1.84-2.24c0.641,0,1.342,0.323,2.102,0.971
		c0.76,0.646,1.141,1.289,1.141,1.93c0,0.827-0.334,1.547-1,2.16c-0.668,0.613-1.42,0.92-2.262,0.92c-0.08,0-0.25-0.066-0.51-0.2
		c-0.26-0.133-0.438-0.199-0.529-0.199c-0.174,0-0.26,0.054-0.26,0.16c0,1.533,0.506,2.299,1.52,2.299c0.521,0,1-0.172,1.439-0.52
		c0.268-0.199,0.561-0.515,0.881-0.939c0.253-0.334,0.42-0.5,0.5-0.5C231.311,109.257,231.463,109.443,231.463,109.816z
		 M230.084,106.136c0-0.466-0.134-0.901-0.4-1.31c-0.268-0.406-0.619-0.61-1.061-0.61c-0.533,0-0.967,0.334-1.299,1
		c-0.281,0.562-0.422,1.142-0.422,1.74c0,0.387,0.125,0.711,0.371,0.971c0.246,0.261,0.562,0.39,0.949,0.39
		c0.547,0,1-0.232,1.36-0.699C229.916,107.191,230.084,106.697,230.084,106.136z"/>
	<path fill="#A7A9AC" d="M233.844,111.598c0,0.346-0.188,0.52-0.561,0.52c-0.588,0-0.873-1.207-0.859-3.619l0.061-8.98
		c0-0.146-0.021-0.356-0.061-0.629c-0.041-0.273-0.061-0.478-0.061-0.611c0.253-0.187,0.467-0.279,0.641-0.279
		c0.186,0,0.373,0.066,0.561,0.2c0.187,0.133,0.279,0.293,0.279,0.479c0,0.135-0.033,0.307-0.101,0.521
		c-0.08,0.267-0.127,0.434-0.14,0.5c-0.16,0.907-0.24,2.174-0.24,3.801c0,2.626-0.008,3.894-0.021,3.799
		c0.039,1.642,0.146,2.874,0.319,3.701c0,0.039,0.029,0.129,0.091,0.271C233.812,111.407,233.844,111.518,233.844,111.598z"/>
	<path fill="#A7A9AC" d="M236.482,111.598c0,0.346-0.187,0.52-0.56,0.52c-0.588,0-0.874-1.207-0.86-3.619l0.061-8.98
		c0-0.146-0.02-0.356-0.061-0.629c-0.039-0.273-0.06-0.478-0.06-0.611c0.252-0.187,0.468-0.279,0.64-0.279
		c0.188,0,0.373,0.066,0.561,0.2c0.188,0.133,0.279,0.293,0.279,0.479c0,0.135-0.032,0.307-0.101,0.521
		c-0.08,0.267-0.127,0.434-0.139,0.5c-0.16,0.907-0.24,2.174-0.24,3.801c0,2.626-0.008,3.894-0.021,3.799
		c0.039,1.642,0.146,2.874,0.318,3.701c0,0.039,0.031,0.129,0.092,0.271C236.453,111.407,236.482,111.518,236.482,111.598z"/>
	<path fill="#A7A9AC" d="M243.344,109.816c0,0.588-0.394,1.113-1.18,1.58c-0.707,0.428-1.374,0.641-2,0.641
		c-1.787,0-2.682-1.133-2.682-3.4c0-1,0.182-2.072,0.541-3.219c0.479-1.494,1.094-2.24,1.84-2.24c0.641,0,1.34,0.323,2.1,0.971
		c0.762,0.646,1.141,1.289,1.141,1.93c0,0.827-0.334,1.547-1,2.16s-1.42,0.92-2.26,0.92c-0.08,0-0.25-0.066-0.51-0.2
		c-0.261-0.133-0.438-0.199-0.531-0.199c-0.173,0-0.26,0.054-0.26,0.16c0,1.533,0.507,2.299,1.521,2.299c0.521,0,1-0.172,1.439-0.52
		c0.266-0.199,0.561-0.515,0.879-0.939c0.254-0.334,0.42-0.5,0.5-0.5C243.189,109.257,243.344,109.443,243.344,109.816z
		 M241.963,106.136c0-0.466-0.133-0.901-0.398-1.31c-0.268-0.406-0.621-0.61-1.061-0.61c-0.533,0-0.967,0.334-1.301,1
		c-0.279,0.562-0.42,1.142-0.42,1.74c0,0.387,0.123,0.711,0.369,0.971c0.248,0.261,0.563,0.39,0.951,0.39
		c0.547,0,1-0.232,1.358-0.699C241.797,107.191,241.963,106.697,241.963,106.136z"/>
	<path fill="#A7A9AC" d="M248.684,104.677c0,0.054-0.008,0.166-0.021,0.341c-0.173,0.267-0.34,0.399-0.5,0.399
		c-0.106,0-0.2-0.067-0.28-0.201c-0.039-0.84-0.387-1.26-1.039-1.26c-0.428,0-0.848,0.787-1.261,2.36
		c-0.159,0.572-0.239,1.34-0.239,2.3c0,1.227,0.033,1.979,0.1,2.26c0.014,0.041,0.048,0.124,0.101,0.25
		c0.054,0.127,0.08,0.224,0.08,0.291c0,0.293-0.199,0.438-0.601,0.438c-0.453,0-0.68-0.232-0.68-0.699
		c0-0.066,0.016-0.163,0.049-0.29s0.051-0.224,0.051-0.29c0-0.733-0.032-1.833-0.1-3.301c-0.066-1.467-0.101-2.565-0.101-3.299
		c0-0.268,0.046-0.432,0.14-0.49c0.094-0.06,0.273-0.09,0.541-0.09c0.332,0,0.525,0.119,0.579,0.359
		c0.013,0.268,0.026,0.526,0.04,0.779c0.348-0.533,0.547-0.833,0.6-0.9c0.295-0.332,0.602-0.5,0.92-0.5
		c0.24,0,0.48,0.074,0.722,0.221c0.133,0.08,0.315,0.287,0.55,0.621C248.568,104.309,248.684,104.544,248.684,104.677z"/>
</g>
</svg>
