<?xml version="1.0" encoding="utf-8"?>
<!-- Generator: Adobe Illustrator 15.1.0, SVG Export Plug-In . SVG Version: 6.00 Build 0)  -->
<!DOCTYPE svg PUBLIC "-//W3C//DTD SVG 1.1//EN" "http://www.w3.org/Graphics/SVG/1.1/DTD/svg11.dtd">
<svg version="1.1" id="Layer_1" xmlns="http://www.w3.org/2000/svg" xmlns:xlink="http://www.w3.org/1999/xlink" x="0px" y="0px"
	 width="144px" height="180px" viewBox="0 0 144 180" enable-background="new 0 0 144 180" xml:space="preserve">
<g>
	<polygon fill="#FFFFFF" points="17.764,20.186 17.764,119.234 117.124,69.711 	"/>
	<path fill="#A7A9AC" d="M17.764,20.186c0.741,8.254,1.29,16.508,1.819,24.762c0.457,8.256,0.963,16.51,1.323,24.764
		c0.377,8.254,0.699,16.508,0.976,24.762c0.265,8.254,0.518,16.508,0.688,24.762l-6.949-4.301c8.178-4.332,16.4-8.574,24.624-12.814
		l12.359-6.312l12.396-6.238c8.258-4.168,16.572-8.234,24.869-12.324c8.316-4.055,16.641-8.094,24.998-12.066v9.064
		c-8.205-4.277-16.396-8.582-24.549-12.965c-8.166-4.357-16.295-8.789-24.399-13.27l-12.135-6.762l-12.071-6.891
		C33.673,29.746,25.679,25.043,17.764,20.186z M17.764,20.186c8.644,3.396,17.211,6.949,25.731,10.594l12.769,5.49l12.705,5.617
		c8.456,3.775,16.89,7.598,25.284,11.494c8.406,3.873,16.775,7.82,25.131,11.797l9.082,4.324l-9.082,4.74
		c-8.203,4.283-16.439,8.498-24.684,12.695c-8.262,4.166-16.512,8.354-24.812,12.439l-12.444,6.143l-12.48,6.068
		c-8.336,4.014-16.674,8.025-25.056,11.947l-7.107,3.326l0.157-7.627c0.17-8.254,0.422-16.508,0.688-24.762
		c0.277-8.254,0.599-16.508,0.976-24.762c0.359-8.254,0.866-16.508,1.323-24.764C16.474,36.693,17.022,28.439,17.764,20.186z"/>
</g>
<g>
	<path fill="#FFFFFF" stroke="#A7A9AC" stroke-miterlimit="10" d="M18.415,146.572c0,0.293-0.02,0.553-0.06,0.779
		c-0.52,3.08-1.98,4.621-4.38,4.621c-1.227,0-2.327-0.314-3.3-0.941v0.42c-0.013,0.895,0.066,1.508,0.24,1.84
		c0.253,0.467,0.38,0.734,0.38,0.801c0,0.268-0.104,0.5-0.31,0.699c-0.207,0.201-0.443,0.301-0.71,0.301
		c-0.6,0-1.007-0.213-1.22-0.641c-0.12-0.252-0.2-0.727-0.24-1.42c-0.027-0.453-0.04-0.973-0.04-1.559
		c0-0.227,0.03-0.568,0.09-1.021s0.09-0.799,0.09-1.039v-1.359c-0.014-0.4,0.013-0.99,0.08-1.771c0.067-0.779,0.1-1.355,0.1-1.729
		v-1.801c0-0.027-0.06-0.387-0.18-1.08c0.343-0.32,0.667-0.48,0.971-0.48c0.356,0,0.641,0.131,0.852,0.391
		c0.211,0.26,0.317,0.576,0.317,0.949c0,0.094,0,0.188,0,0.281c0.88-1.16,1.993-1.74,3.34-1.74c1.267,0,2.267,0.473,3,1.42
		c0.653,0.854,0.98,1.934,0.98,3.24c0,0.094,0,0.232,0,0.42C18.415,146.338,18.415,146.479,18.415,146.572z M16.595,146.252
		c0-0.92-0.14-1.707-0.42-2.359c-0.387-0.881-0.98-1.32-1.78-1.32c-1.027,0-1.907,0.627-2.64,1.879
		c-0.653,1.094-0.98,2.193-0.98,3.301c0,1.854,0.933,2.779,2.8,2.779c1,0,1.733-0.432,2.2-1.299c0.267-0.48,0.52-1.354,0.76-2.621
		C16.575,146.359,16.595,146.238,16.595,146.252z"/>
	<path fill="#FFFFFF" stroke="#A7A9AC" stroke-miterlimit="10" d="M25.035,147.973c0,0.092-0.014,0.238-0.04,0.439
		c-0.28,0.4-0.574,0.6-0.88,0.6c-0.254,0-0.48-0.146-0.68-0.439c-0.027-0.6-0.24-0.9-0.64-0.9c-0.24,0-0.533,0.633-0.88,1.9
		c-0.16,0.559-0.24,1.34-0.24,2.34c0,0.947,0.043,1.52,0.131,1.719c0.099,0.254,0.149,0.428,0.149,0.521
		c0,0.227-0.103,0.41-0.307,0.549c-0.205,0.141-0.433,0.211-0.683,0.211c-0.713,0-1.07-0.334-1.07-1c0-0.066,0.017-0.16,0.05-0.281
		c0.033-0.119,0.05-0.205,0.05-0.26c0-0.68-0.034-1.689-0.1-3.029c-0.067-1.34-0.1-2.344-0.1-3.01c0-0.6,0.36-0.9,1.08-0.9
		c0.427,0,0.72,0.127,0.88,0.381c0.373-0.414,0.793-0.621,1.26-0.621c0.32,0,0.626,0.088,0.92,0.26c0.2,0.107,0.433,0.338,0.7,0.691
		S25.035,147.771,25.035,147.973z"/>
	<path fill="#FFFFFF" stroke="#A7A9AC" stroke-miterlimit="10" d="M32.115,153.092c0,0.666-0.454,1.188-1.36,1.561
		c-0.707,0.293-1.447,0.439-2.22,0.439c-2.053,0-3.08-1.166-3.08-3.5c0-0.961,0.233-2.027,0.7-3.199
		c0.573-1.441,1.267-2.16,2.08-2.16c0.733,0,1.523,0.326,2.37,0.979c0.846,0.654,1.27,1.334,1.27,2.041c0,0.879-0.394,1.58-1.18,2.1
		c-0.693,0.467-1.52,0.701-2.48,0.701c-0.187,0-0.487-0.113-0.9-0.342c0.053,1.268,0.426,1.9,1.12,1.9c0.587,0,1.163-0.166,1.73-0.5
		c0.567-0.332,0.93-0.5,1.09-0.5C31.828,152.611,32.115,152.771,32.115,153.092z M29.935,149.312c0-0.334-0.097-0.65-0.29-0.951
		c-0.193-0.299-0.45-0.449-0.77-0.449c-0.44,0-0.78,0.193-1.02,0.58c-0.2,0.334-0.3,0.727-0.3,1.18c0,0.254,0.086,0.459,0.26,0.619
		c0.173,0.16,0.393,0.24,0.66,0.24C29.448,150.531,29.935,150.125,29.935,149.312z"/>
	<path fill="#FFFFFF" stroke="#A7A9AC" stroke-miterlimit="10" d="M39.675,152.832c0,0.627-0.267,1.174-0.8,1.641
		c-0.587,0.506-1.374,0.76-2.36,0.76c-0.427,0.012-0.887-0.074-1.38-0.26c-1.6-0.602-2.4-1.088-2.4-1.461
		c0-0.586,0.42-0.881,1.26-0.881c0.12,0,0.247,0.008,0.38,0.021c0.04,0.4,0.36,0.719,0.96,0.959c0.52,0.215,1.02,0.301,1.5,0.26
		c0.387-0.025,0.58-0.166,0.58-0.42c0-0.039-0.01-0.1-0.03-0.18s-0.03-0.143-0.03-0.189s-0.253-0.15-0.76-0.311
		c-0.574-0.172-0.894-0.273-0.96-0.299c-1.52-0.908-2.28-2-2.28-3.281c0-0.773,0.22-1.486,0.66-2.139
		c0.493-0.721,1.106-1.08,1.84-1.08c0.546,0,1.17,0.213,1.87,0.639c0.7,0.428,1.13,0.887,1.29,1.381
		c0.106,0.346,0.16,0.633,0.16,0.859c0,0.24-0.033,0.439-0.1,0.6c-0.08,0.201-0.16,0.4-0.24,0.602
		c-0.253,0.172-0.507,0.26-0.76,0.26c-0.134,0-0.357-0.084-0.67-0.25c-0.313-0.168-0.47-0.311-0.47-0.432
		c0-0.053,0.08-0.227,0.24-0.52c0.093-0.172,0.14-0.32,0.14-0.439c0-0.801-0.313-1.199-0.94-1.199c-0.374,0-0.66,0.238-0.86,0.719
		c-0.147,0.373-0.22,0.773-0.22,1.201c0,0.533,0.38,1.012,1.14,1.439c0.693,0.307,1.393,0.619,2.1,0.939
		C39.295,152.119,39.675,152.473,39.675,152.832z"/>
	<path fill="#FFFFFF" stroke="#A7A9AC" stroke-miterlimit="10" d="M46.915,152.832c0,0.627-0.267,1.174-0.8,1.641
		c-0.587,0.506-1.374,0.76-2.36,0.76c-0.427,0.012-0.887-0.074-1.38-0.26c-1.6-0.602-2.4-1.088-2.4-1.461
		c0-0.586,0.42-0.881,1.26-0.881c0.12,0,0.247,0.008,0.38,0.021c0.04,0.4,0.36,0.719,0.96,0.959c0.52,0.215,1.02,0.301,1.5,0.26
		c0.387-0.025,0.58-0.166,0.58-0.42c0-0.039-0.01-0.1-0.03-0.18s-0.03-0.143-0.03-0.189s-0.253-0.15-0.76-0.311
		c-0.574-0.172-0.894-0.273-0.96-0.299c-1.52-0.908-2.28-2-2.28-3.281c0-0.773,0.22-1.486,0.66-2.139
		c0.493-0.721,1.106-1.08,1.84-1.08c0.546,0,1.17,0.213,1.87,0.639c0.7,0.428,1.13,0.887,1.29,1.381
		c0.106,0.346,0.16,0.633,0.16,0.859c0,0.24-0.033,0.439-0.1,0.6c-0.08,0.201-0.16,0.4-0.24,0.602
		c-0.253,0.172-0.507,0.26-0.76,0.26c-0.134,0-0.357-0.084-0.67-0.25c-0.313-0.168-0.47-0.311-0.47-0.432
		c0-0.053,0.08-0.227,0.24-0.52c0.093-0.172,0.14-0.32,0.14-0.439c0-0.801-0.313-1.199-0.94-1.199c-0.374,0-0.66,0.238-0.86,0.719
		c-0.147,0.373-0.22,0.773-0.22,1.201c0,0.533,0.38,1.012,1.14,1.439c0.693,0.307,1.393,0.619,2.1,0.939
		C46.535,152.119,46.915,152.473,46.915,152.832z"/>
	<path fill="#FFFFFF" stroke="#A7A9AC" stroke-miterlimit="10" d="M62.495,142.531c0,0.121-0.094,0.254-0.28,0.4
		s-0.293,0.254-0.32,0.32c-0.347,0.652-0.507,1.939-0.48,3.859l0.02,0.781c0.04-0.014,0.086-0.021,0.14-0.021
		c0.2,0,0.39,0.113,0.57,0.34c0.18,0.229,0.27,0.447,0.27,0.66c0,0.16-0.127,0.273-0.38,0.34c-0.2,0.041-0.4,0.08-0.6,0.121
		c0.013,0.627,0.026,1.26,0.04,1.9c0.026,0.812,0.113,1.42,0.26,1.82c0.107,0.332,0.16,0.553,0.16,0.658c0,0.268-0.1,0.512-0.3,0.73
		c-0.2,0.221-0.434,0.33-0.7,0.33c-0.507,0-0.84-0.266-1-0.799c-0.027-0.107-0.087-0.574-0.18-1.4
		c-0.027-0.293-0.04-0.646-0.04-1.061v-0.82c-0.013-0.547-0.047-0.992-0.1-1.34c-0.773,0.027-1.694,0.141-2.76,0.34
		c-0.92,0.174-1.833,0.348-2.74,0.52c0.053,0.174,0.08,0.895,0.08,2.16c0,1.014,0.153,1.682,0.46,2
		c0.04,0.068,0.06,0.135,0.06,0.201c0,0.346-0.267,0.52-0.8,0.52c-0.494,0-0.88-0.154-1.16-0.461c-0.173-0.186-0.34-1.572-0.5-4.158
		c-0.253-0.055-0.453-0.207-0.6-0.461c-0.147-0.254-0.22-0.52-0.22-0.801c0-0.158,0.086-0.27,0.26-0.33
		c0.173-0.059,0.34-0.115,0.5-0.17c0.013-0.172,0.04-0.486,0.08-0.939c0.04-0.387,0.06-0.693,0.06-0.92
		c0-2.346,0.126-3.84,0.38-4.48c0.213-0.52,0.58-0.779,1.1-0.779c0.32,0,0.62,0.104,0.9,0.311c0.28,0.207,0.42,0.463,0.42,0.77
		c0,0.16-0.054,0.359-0.16,0.6c-0.147,0.32-0.227,0.508-0.24,0.561c-0.36,1.119-0.54,2.453-0.54,4c0,0.254,0,0.406,0,0.459
		c0.12-0.012,0.433-0.066,0.94-0.16c1.573-0.318,3.053-0.479,4.44-0.479c0.04-1.961,0.093-3.227,0.16-3.801
		c0.227-1.92,0.687-2.879,1.38-2.879c0.413,0,0.753,0.156,1.02,0.469C62.361,141.756,62.495,142.119,62.495,142.531z"/>
	<path fill="#FFFFFF" stroke="#A7A9AC" stroke-miterlimit="10" d="M70.495,153.092c0,0.666-0.454,1.188-1.36,1.561
		c-0.707,0.293-1.447,0.439-2.22,0.439c-2.053,0-3.08-1.166-3.08-3.5c0-0.961,0.233-2.027,0.7-3.199
		c0.573-1.441,1.267-2.16,2.08-2.16c0.733,0,1.523,0.326,2.37,0.979c0.846,0.654,1.27,1.334,1.27,2.041c0,0.879-0.394,1.58-1.18,2.1
		c-0.693,0.467-1.52,0.701-2.48,0.701c-0.187,0-0.487-0.113-0.9-0.342c0.053,1.268,0.426,1.9,1.12,1.9c0.587,0,1.163-0.166,1.73-0.5
		c0.567-0.332,0.93-0.5,1.09-0.5C70.208,152.611,70.495,152.771,70.495,153.092z M68.314,149.312c0-0.334-0.097-0.65-0.29-0.951
		c-0.193-0.299-0.45-0.449-0.77-0.449c-0.44,0-0.78,0.193-1.02,0.58c-0.2,0.334-0.3,0.727-0.3,1.18c0,0.254,0.086,0.459,0.26,0.619
		c0.173,0.16,0.393,0.24,0.66,0.24C67.828,150.531,68.314,150.125,68.314,149.312z"/>
	<path fill="#FFFFFF" stroke="#A7A9AC" stroke-miterlimit="10" d="M76.775,147.973c0,0.092-0.014,0.238-0.041,0.439
		c-0.279,0.4-0.572,0.6-0.879,0.6c-0.254,0-0.481-0.146-0.68-0.439c-0.027-0.6-0.24-0.9-0.641-0.9c-0.24,0-0.533,0.633-0.881,1.9
		c-0.16,0.559-0.24,1.34-0.24,2.34c0,0.947,0.045,1.52,0.131,1.719c0.1,0.254,0.15,0.428,0.15,0.521c0,0.227-0.104,0.41-0.307,0.549
		c-0.205,0.141-0.434,0.211-0.684,0.211c-0.713,0-1.07-0.334-1.07-1c0-0.066,0.018-0.16,0.051-0.281
		c0.033-0.119,0.051-0.205,0.051-0.26c0-0.68-0.035-1.689-0.102-3.029s-0.1-2.344-0.1-3.01c0-0.6,0.359-0.9,1.08-0.9
		c0.426,0,0.721,0.127,0.879,0.381c0.373-0.414,0.795-0.621,1.262-0.621c0.318,0,0.625,0.088,0.92,0.26
		c0.199,0.107,0.432,0.338,0.699,0.691C76.64,147.496,76.775,147.771,76.775,147.973z"/>
	<path fill="#FFFFFF" stroke="#A7A9AC" stroke-miterlimit="10" d="M83.856,153.092c0,0.666-0.455,1.188-1.361,1.561
		c-0.707,0.293-1.446,0.439-2.22,0.439c-2.056,0-3.081-1.166-3.081-3.5c0-0.961,0.232-2.027,0.699-3.199
		c0.574-1.441,1.268-2.16,2.082-2.16c0.733,0,1.524,0.326,2.372,0.979c0.846,0.654,1.269,1.334,1.269,2.041
		c0,0.879-0.394,1.58-1.179,2.1c-0.693,0.467-1.522,0.701-2.481,0.701c-0.188,0-0.487-0.113-0.901-0.342
		c0.053,1.268,0.426,1.9,1.12,1.9c0.588,0,1.165-0.166,1.731-0.5c0.566-0.332,0.93-0.5,1.09-0.5
		C83.569,152.611,83.856,152.771,83.856,153.092z M81.675,149.312c0-0.334-0.096-0.65-0.29-0.951
		c-0.193-0.299-0.449-0.449-0.77-0.449c-0.442,0-0.782,0.193-1.021,0.58c-0.201,0.334-0.301,0.727-0.301,1.18
		c0,0.254,0.086,0.459,0.26,0.619s0.393,0.24,0.661,0.24C81.188,150.531,81.675,150.125,81.675,149.312z"/>
	<path fill="#FFFFFF" stroke="#A7A9AC" stroke-miterlimit="10" d="M93.216,147.691c0,0.361-0.547,0.613-1.641,0.76
		c-0.027,0.295-0.039,0.961-0.039,2v1.32c0,0.268,0.039,0.66,0.119,1.18c0.08,0.521,0.121,0.908,0.121,1.16
		c0,0.215-0.107,0.404-0.32,0.57c-0.213,0.168-0.428,0.25-0.641,0.25c-0.334,0-0.613-0.287-0.84-0.859
		c-0.174-0.441-0.26-0.867-0.26-1.281v-4.238c-0.613-0.094-0.967-0.154-1.061-0.182c-0.346-0.105-0.52-0.26-0.52-0.459
		c0-0.053,0.014-0.113,0.039-0.18c0.348-0.494,0.734-0.74,1.16-0.74c0.027,0,0.066,0,0.121,0c0.053,0.014,0.092,0.02,0.119,0.02
		c0.281,0,0.414-0.326,0.4-0.98v-1.459c-0.066-0.146-0.1-0.273-0.1-0.381c0-0.172,0.102-0.33,0.307-0.469
		c0.205-0.141,0.398-0.211,0.584-0.211c0.277,0,0.541,0.131,0.793,0.391c0.25,0.26,0.377,0.537,0.377,0.83
		c0,0.32-0.051,0.637-0.15,0.949c-0.1,0.314-0.145,0.637-0.131,0.971v0.08C92.696,146.838,93.216,147.158,93.216,147.691z"/>
	<path fill="#FFFFFF" stroke="#A7A9AC" stroke-miterlimit="10" d="M100.677,150.912c0,1.199-0.301,2.227-0.9,3.08
		c-0.693,0.973-1.613,1.459-2.76,1.459c-1.174,0-2.061-0.398-2.66-1.199c-0.547-0.707-0.82-1.666-0.82-2.881
		c0-1.199,0.301-2.332,0.9-3.398c0.693-1.268,1.592-1.9,2.699-1.9c0.348,0,0.779,0.152,1.301,0.459
		C99.929,147.426,100.677,148.885,100.677,150.912z M98.915,150.871c0-2.039-0.492-3.059-1.479-3.059c-0.707,0-1.24,0.434-1.6,1.299
		c-0.268,0.654-0.4,1.395-0.4,2.221c0,1.773,0.525,2.66,1.58,2.66c0.68,0,1.186-0.367,1.52-1.1
		C98.79,152.332,98.915,151.658,98.915,150.871z"/>
	<path fill="#FFFFFF" stroke="#A7A9AC" stroke-miterlimit="10" d="M114.915,146.572c0,0.293-0.02,0.553-0.059,0.779
		c-0.521,3.08-1.98,4.621-4.381,4.621c-1.227,0-2.326-0.314-3.301-0.941v0.42c-0.012,0.895,0.066,1.508,0.24,1.84
		c0.254,0.467,0.381,0.734,0.381,0.801c0,0.268-0.104,0.5-0.311,0.699c-0.207,0.201-0.443,0.301-0.709,0.301
		c-0.602,0-1.008-0.213-1.221-0.641c-0.119-0.252-0.199-0.727-0.24-1.42c-0.027-0.453-0.039-0.973-0.039-1.559
		c0-0.227,0.029-0.568,0.09-1.021c0.059-0.453,0.09-0.799,0.09-1.039v-1.359c-0.014-0.4,0.012-0.99,0.08-1.771
		c0.066-0.779,0.1-1.355,0.1-1.729v-1.801c0-0.027-0.061-0.387-0.18-1.08c0.344-0.32,0.666-0.48,0.971-0.48
		c0.355,0,0.641,0.131,0.852,0.391s0.316,0.576,0.316,0.949c0,0.094,0,0.188,0,0.281c0.881-1.16,1.994-1.74,3.342-1.74
		c1.266,0,2.266,0.473,3,1.42c0.652,0.854,0.979,1.934,0.979,3.24c0,0.094,0,0.232,0,0.42
		C114.915,146.338,114.915,146.479,114.915,146.572z M113.095,146.252c0-0.92-0.139-1.707-0.42-2.359
		c-0.387-0.881-0.979-1.32-1.779-1.32c-1.027,0-1.906,0.627-2.641,1.879c-0.652,1.094-0.979,2.193-0.979,3.301
		c0,1.854,0.932,2.779,2.799,2.779c1,0,1.734-0.432,2.201-1.299c0.266-0.48,0.52-1.354,0.76-2.621
		C113.075,146.359,113.095,146.238,113.095,146.252z"/>
	<path fill="#FFFFFF" stroke="#A7A9AC" stroke-miterlimit="10" d="M118.575,154.312c0,0.24-0.098,0.443-0.289,0.609
		c-0.193,0.166-0.418,0.25-0.67,0.25c-0.842,0-1.262-1.1-1.262-3.301c0-1,0.012-2.5,0.031-4.5s0.029-3.5,0.029-4.5
		c0-0.16-0.02-0.393-0.061-0.699c-0.039-0.307-0.059-0.533-0.059-0.68c0.439-0.293,0.785-0.439,1.039-0.439
		c0.293,0,0.574,0.096,0.84,0.289c0.268,0.193,0.4,0.438,0.4,0.73c0,0.146-0.033,0.32-0.1,0.52c-0.094,0.32-0.146,0.494-0.16,0.52
		c-0.174,0.828-0.26,2-0.26,3.52c0,2.414,0,3.654,0,3.721c0.039,1.68,0.18,2.854,0.42,3.52
		C118.542,154.059,118.575,154.205,118.575,154.312z"/>
	<path fill="#FFFFFF" stroke="#A7A9AC" stroke-miterlimit="10" d="M126.636,151.451c0,1.721-0.055,2.934-0.16,3.641
		c-0.066,0.414-0.348,0.619-0.84,0.619c-0.748,0-1.08-0.373-1-1.119c-0.668,0.32-1.361,0.48-2.08,0.48
		c-0.693,0-1.354-0.174-1.98-0.52c-0.746-0.414-1.119-0.941-1.119-1.58c0-0.627,0.426-1.215,1.279-1.762
		c0.773-0.492,1.5-0.738,2.18-0.738h1.701v-0.477c0.012-1.389-0.4-2.084-1.24-2.084c-1.055,0-1.58,0.488-1.58,1.465
		c0,0.33-0.188,0.494-0.561,0.494c-0.227,0-0.463-0.102-0.711-0.309c-0.246-0.207-0.369-0.424-0.369-0.65
		c0-0.746,0.266-1.359,0.801-1.84c0.533-0.48,1.172-0.721,1.92-0.721C125.382,146.352,126.636,148.053,126.636,151.451z
		 M124.616,152.172c0-0.268-0.201-0.4-0.602-0.4c-1.666,0-2.5,0.395-2.5,1.18c0,0.428,0.367,0.641,1.102,0.641
		c0.453,0,0.879-0.127,1.279-0.381C124.376,152.932,124.616,152.586,124.616,152.172z"/>
	<path fill="#FFFFFF" stroke="#A7A9AC" stroke-miterlimit="10" d="M135.034,147.172c-0.119,0.666-0.232,1.326-0.34,1.98
		c-0.133,0.773-0.199,1.434-0.199,1.979v5.441c0,0.986-0.283,1.74-0.85,2.26c-0.568,0.52-1.344,0.779-2.33,0.779
		c-0.641,0-1.348-0.166-2.121-0.5c-0.92-0.387-1.379-0.854-1.379-1.4c0-0.186,0.076-0.342,0.229-0.469
		c0.154-0.127,0.324-0.189,0.512-0.189c0.119,0,0.406,0.18,0.859,0.539s0.973,0.539,1.561,0.539c0.746,0,1.246-0.273,1.5-0.818
		c0.186-0.375,0.279-0.975,0.279-1.801c0-0.307-0.008-0.561-0.02-0.76c-0.441,0.293-0.934,0.439-1.48,0.439
		c-1,0-1.773-0.359-2.32-1.08c-0.492-0.652-0.74-1.486-0.74-2.5c0-0.105,0.066-1.785,0.201-5.039c0.398-0.174,0.719-0.26,0.959-0.26
		c0.268,0,0.66,0.16,1.18,0.479c-0.318,0.801-0.479,2.4-0.479,4.801c0,1.533,0.387,2.301,1.16,2.301c0.572,0,1.012-0.48,1.318-1.441
		c0.227-0.693,0.34-1.412,0.34-2.16v-2.439c0,0.014-0.02-0.207-0.059-0.66c0.547-0.266,0.953-0.4,1.219-0.4
		C134.315,146.791,134.647,146.918,135.034,147.172z"/>
</g>
</svg>
